<?xml version="1.0" encoding="UTF-8"?>
<svg id="Layer_1" data-name="Layer 1" xmlns="http://www.w3.org/2000/svg" viewBox="0 0 1200 1200">
  <defs>
    <style>
      .cls-1 {
        fill: #df66bf;
      }

      .cls-2 {
        fill: #00fff4;
      }

      .cls-3 {
        fill: #0003ff;
      }
    </style>
  </defs>
  <g>
    <path class="cls-1" d="M452.95,803.9c.59.59,1.15,1.15,1.66,1.66.51.51,1.01,1.03,1.48,1.54l5.63,5.57c.47.51.98,1.03,1.51,1.54.53.51,1.08,1.07,1.63,1.66v32.48h-13.16v-13.22h-20.68l-2.25,2.25v10.96h-8.24l-4.98-4.98v-39.47h37.39ZM451.71,824.76v-8.24l-.59-.59-1.13-1.07-.59-.59h-20.62v17.19l3.17-3.17,3.53-3.53h16.24Z"/>
    <path class="cls-1" d="M484.6,835.72l2.25,2.25h30.7v10.37h-34.19l-11.97-11.97v-32.48h41.66l4.5,4.5v5.87h-32.95v21.45Z"/>
    <path class="cls-1" d="M561.23,803.9c.59.59,1.15,1.15,1.66,1.66.51.51,1.01,1.03,1.48,1.54l5.63,5.57c.47.51.98,1.03,1.51,1.54.53.51,1.08,1.07,1.63,1.66v32.48h-13.16v-13.22h-20.68l-2.25,2.25v10.96h-8.24l-4.98-4.98v-39.47h37.39ZM559.98,824.76v-8.24l-.59-.59-1.13-1.07-.59-.59h-20.62v17.19l3.17-3.17,3.53-3.53h16.24Z"/>
    <path class="cls-1" d="M617.59,803.9l11.97,11.97v20.5l-11.97,11.97h-37.34v-44.45h37.34ZM616.34,816.52l-2.25-2.25h-20.62v23.71h20.62l2.25-2.25v-19.2Z"/>
    <path class="cls-1" d="M648.64,814.27v11.44l6.7-6.7h23.11v6.76l-3.62,3.62h-23.94l-2.25,2.25v6.34h32.95v10.37h-34.14l-12.03-12.03v-32.42h41.72l4.45,4.44v5.93h-32.95Z"/>
    <path class="cls-1" d="M747.19,803.9v44.45h-13.16v-21.22l-15.76,21.22h-1.54l-15.7-21.22v21.22h-8.36l-4.86-4.86v-39.59h11.14l18.55,26.25,18.55-26.25h11.14Z"/>
    <path class="cls-1" d="M803.02,830.8h-17.19v17.54h-8.24l-4.98-4.98v-12.56h-6.93l-11.97-11.97v-14.93h13.22v14.28l2.25,2.25h20.62v-16.53h8.24l4.98,4.98v21.93Z"/>
  </g>
  <path class="cls-1" d="M685.9,701.05v89.78h-30.71v-24.53h-37.6l-15.56-15.56v40.09h-19.15l-11.57-11.57v-65.76l30.71.62v22.84l5.23,5.23h47.93v-52.72h19.14l11.57,11.57Z"/>
  <path class="cls-1" d="M811.73,728.18l-10.88,10.88,10.88,10.74v21.35l-19.97,19.97h-94.62v-103.3h94.62l19.97,19.97v20.38ZM727.85,741.54c4.59-4.68,9.78-9.87,15.56-15.56h37.6v-8.81l-5.23-5.23h-47.93v29.61ZM775.79,767.02l5.23-5.23v-11.85h-47.93l-1.38,1.38-2.48,2.62-1.38,1.38v11.71h47.93Z"/>
  <g>
    <g>
      <path class="cls-1" d="M618.84,391.18c-.27,1.55-.66,4.04-.88,6.64v2.96h-.14c-.04,3.23.38,6.14,1.86,7.07l.22.12.26.02c.46.05,11.28,1.16,20.02-.04,1.94-.27,3.64-.64,5.08-1.1,3.42,2.42,7.02,5.4,8,6.8-1.06.35-3.4.81-5.51,1.23-6.3,1.25-15.71,3.13-22.21,6.84v2.49c6.06-3.96,16.14-5.96,22.66-7.26,5.78-1.15,7.73-1.54,7.5-3.11-.35-2.36-6.83-7.11-9.61-9.04l-.48-.33-.55.19c-1.4.5-3.15.89-5.19,1.18-7.65,1.06-17.26.24-19.14.06-1.06-1.23-.91-8.01.38-15l.09-.49-.34-.38c-.59-.66-1.59-1.15-2.89-1.51v2.25c.35.13.65.27.88.42Z"/>
      <path class="cls-1" d="M621.17,466.09v.11s.03.11.03.11c1.76,6.97,5.68,11.93,9.84,17.18,3.16,3.99,6.36,8.06,8.83,13.21h2.41c-2.65-5.87-6.18-10.33-9.49-14.52-3.99-5.04-7.76-9.79-9.42-16.28-.05-1.5-.67-17.69-2.82-32.36h-2.22c2.26,15.28,2.84,32.38,2.85,32.55Z"/>
      <path class="cls-1" d="M589.83,469.35c.15,2.82-.38,5.28-1.55,7.36v3.65c2.72-2.91,3.99-6.64,3.75-11.12-.31-5.6-1.56-10.53-3.75-14.85v5.91c.85,2.79,1.37,5.8,1.55,9.06Z"/>
      <path class="cls-1" d="M543.36,395.66c.13,1.46.65,4.84,2.81,8.79,2.55,4.68,7.98,11.05,19.34,15.05l.03.2,18.67,7.62.03-.04,14.04,4.83-.43-1.87c-.84-3.62,1.28-17.94,3.26-29.46h-2.23c-1.67,9.69-3.62,22.47-3.38,28.12l-10.1-3.47c2.08-3.89,7.96-16.79,5.3-33.86.07,0,.13-.02.21-.03,1.86-.26,3.65-.48,5.38-.67v-2.3c-2.05.23-3.99.48-5.72.71-.84.12-1.33.19-1.33.19l-1.1.17.18,1.06c3.06,17.54-3.25,30.67-5.04,33.95l-15.74-6.43-3.5-23.52-.81-.11c-.58-.08-14.43-1.99-23.69-.71-2.9.4-5.07,1.1-6.52,2.06h7.15c1.02-.13,2.09-.22,3.2-.28ZM562.08,396.58l3.06,20.53c-17-6.46-19.28-18.53-19.58-21.53,6.77-.13,14.11.7,16.52,1Z"/>
      <path class="cls-1" d="M646.49,519.29c0-.58,0-1.12-.01-1.68h-2.19c0,.56.02,1.11.01,1.7-.23,13.86-8.1,33.6-20.52,51.67-.02.02-.03.05-.05.07h.78v2.65c.37-.52.74-1.02,1.1-1.55,12.64-18.38,20.64-38.61,20.88-52.85Z"/>
      <path class="cls-1" d="M586.97,602.44s0,0,0,0c-.4.06-.78.18-1.17.21-7.53.46-14.69-1.17-21.39-4.87v2.36c6.76,3.5,13.97,5.09,21.53,4.63.45-.03.89-.16,1.35-.22,0,0,0,0,0,0,6.86-.95,14.98-5.95,23.24-14.1h-3.17c-7.35,6.89-14.49,11.18-20.38,12Z"/>
      <path class="cls-1" d="M540.75,572.84c-4.26-7.22-7.52-14.68-9.88-21.19v6.07c2.13,5.21,4.77,10.77,7.97,16.18,1.67,2.84,3.42,5.47,5.22,7.93h2.72c-2.09-2.75-4.11-5.74-6.03-8.99Z"/>
      <path class="cls-1" d="M525.92,533.61c-.8-7.16-5.22-9.1-8.44-10.52-1.35-.59-2.51-1.1-2.96-1.81-.82-1.31-2.07-5.3-2.65-9.46-.73-5.28,0-7.85.91-8.49,3.44-2.4,10.83-11.59,12.2-13.31,1.2-.32,5.65-1.36,8.68-.08,1.71.72,1.78,9.11.14,18.3l-.2,1.14h1.79l.17-.13c5.23-3.92,18.9-3.5,27.95-3.21,4.5.14,7.16.21,8.75-.01,1.06-.15,1.65-.42,1.98-.88.29-.39.34-.87.16-1.33-1.25-3.1-2.62-13.48-3.06-16.96.77-.04,1.85-.12,3.12-.29,2.98-.41,7-1.36,10.45-3.49h-4.99c-4.45,1.57-8.88,1.68-9.67,1.69-1.21-.28-2.56-.88-3.96-1.69h-3.91c2.32,1.63,4.64,2.96,6.72,3.58.35,2.84,1.67,13.14,3.01,17.25-1.44.23-5.18.11-8.53,0-8.87-.28-20.67-.65-27.26,2.41.25-1.75.58-4.3.75-6.95.58-9.01-1.17-10.81-2.53-11.39-3.28-1.39-7.58-.64-9.52-.18-2.22-6.69,3.76-16.19,5.4-17.2,1.45-.18,7.91-.61,11.26-.83l6.36.14c1.22,1.35,5.56,6.05,10.51,10.19v-2.83c-4.97-4.38-9.09-9.01-9.16-9.1l-.32-.36-6.79-.15c-1.07-1.72-4.73-8.05-4.9-14.51h-2.22c.13,6.1,3.06,11.93,4.63,14.62-2.96.19-8.61.58-9.79.74-1.5.21-3.47,3.37-4.24,4.72-1.25,2.17-5.04,9.57-2.69,15.68-1.69,2.11-8.56,10.56-11.59,12.68-4.56,3.19-.7,17.83,1.14,20.77.8,1.28,2.32,1.94,3.93,2.65,3.05,1.34,6.5,2.86,7.17,8.82.25,2.2,1.35,7.28,3.45,13.79h2.3c-2.18-6.63-3.32-11.82-3.56-14.02Z"/>
      <path class="cls-1" d="M542.81,436.7c.04-.68.05-1.38,0-2.09-.24-3.85-1.67-7.15-2.83-9.24-.07-.13-.15-.27-.23-.4,7.97,4.33,19.94,10.51,27.51,14.21-.06,0-.11-.02-.17,0-1.14.16-2.27.39-3.39.68-.32.08-.48.34-.51.59-.55.16-1.09.34-1.62.52-.29-.71-1.03-1.18-1.85-1.06-.96.13-1.63.99-1.49,1.92.14.93,1.03,1.57,1.99,1.44.95-.13,1.61-.98,1.49-1.89.51-.18,1.03-.36,1.55-.51.11.2.33.33.63.25,1.12-.29,2.25-.52,3.39-.68.59-.08.67-.73.37-1.06.9.44,1.75.85,2.5,1.2,6.78,3.2,11.75,7.45,15.02,12.8h2.56c-3.45-6.21-8.95-11.08-16.61-14.7-8.06-3.81-26.51-13.36-34.49-17.87-1.3-1.3-2.67-2.15-3.9-2.11-1.12.04-3.52.32-7.12.81-4.94.68-10.86,1.61-12.95,1.94-.69-1.36-2.1-4.61-.96-6.9.67-1.35,2.22-2.19,4.6-2.52,1.37-.19,2.68-.37,3.93-.57v-2.16c-1.29.21-2.7.41-4.24.63-3.16.44-5.27,1.68-6.27,3.71-1.97,3.96,1.26,9.29,1.4,9.52l.38.62.74-.12c.08-.01,7.63-1.22,13.69-2.06,3.19-.44,5.38-.7,6.55-.78.63.4,1.56.95,2.73,1.61.89.92,1.9,2.21,2.84,3.92.8,1.45,2.57,5.13,2.6,9.29h2.16v1.05Z"/>
      <path class="cls-1" d="M616.9,510.19c-.46.06-.85.28-1.14.58-1.09-.88-2.2-1.71-3.35-2.5.09-.23.05-.5-.22-.69-3.28-2.2-6.76-4.06-10.43-5.58-.31-.13-.57-.02-.73.18-1.03-.41-2.06-.8-3.12-1.14.01-.14.01-.28-.01-.42-.16-1.04-1.16-1.77-2.24-1.62-1.08.15-1.84,1.12-1.68,2.16.16,1.04,1.16,1.77,2.24,1.62.78-.11,1.38-.64,1.6-1.32,1.03.34,2.05.72,3.05,1.12-.02.24.1.48.39.61,3.57,1.48,6.94,3.29,10.13,5.42.26.18.54.14.75,0,1.14.79,2.26,1.62,3.35,2.5-.23.36-.34.8-.27,1.25.16,1.04,1.16,1.77,2.24,1.62,1.08-.15,1.84-1.12,1.68-2.16-.16-1.04-1.16-1.77-2.24-1.62ZM596.16,502.34c-.84.12-1.62-.45-1.74-1.26-.12-.81.47-1.56,1.31-1.68.84-.12,1.62.45,1.74,1.26.12.81-.47,1.56-1.31,1.68ZM617.4,513.55c-.84.12-1.62-.45-1.74-1.26-.12-.81.47-1.56,1.31-1.68.84-.12,1.62.45,1.74,1.26.12.81-.46,1.56-1.31,1.68Z"/>
      <path class="cls-1" d="M526.34,510.01c1.1-1.31,2.24-2.59,3.44-3.82.34.19.73.3,1.15.25.96-.13,1.63-.99,1.49-1.92-.14-.93-1.03-1.57-1.99-1.44s-1.63.99-1.49,1.92c.06.41.29.75.58,1.01-1.19,1.23-2.33,2.5-3.43,3.8-.26-.14-.6-.14-.84.15-.68.83-1.33,1.68-1.97,2.54l-4.22-3.05c2.46-3.25,5.15-6.32,8.12-9.16.24-.23.25-.52.14-.76.84-.79,1.69-1.57,2.57-2.32.41.31.94.46,1.5.39,1.08-.15,1.84-1.12,1.68-2.16-.16-1.04-1.16-1.77-2.24-1.62-1.08.15-1.84,1.12-1.68,2.16.06.39.24.74.5,1.01-.86.74-1.7,1.5-2.52,2.28-.21-.18-.5-.23-.76.02-.5.47-.97.97-1.45,1.45l-4.24-3.06c1.94-1.97,3.95-3.88,6.09-5.66.64-.53-.18-1.53-.82-1-3.15,2.62-6.09,5.44-8.82,8.46-.24.26-.18.55,0,.74-.93,1.05-1.84,2.12-2.72,3.21-.13.16.13.35.26.19.88-1.1,1.79-2.17,2.72-3.22.25.1.55.08.78-.17.71-.78,1.46-1.51,2.2-2.26l4.23,3.06c-2.81,2.86-5.4,5.9-7.74,9.15-.21.29-.12.59.07.79-.38.54-.75,1.09-1.12,1.65-.27-.1-.57-.17-.88-.12-.96.13-1.63.99-1.49,1.92.14.93,1.03,1.57,1.99,1.44.96-.13,1.63-.99,1.49-1.92-.08-.51-.39-.92-.81-1.18.36-.54.72-1.07,1.09-1.6.24.09.52.06.72-.21.28-.4.59-.78.88-1.17l4.23,3.05c-1.55,2.11-2.99,4.29-4.3,6.56-.42.72.81,1.19,1.22.48,1.86-3.22,3.99-6.27,6.36-9.16.2-.25.17-.51.03-.71ZM529.59,495.91c-.12-.81.47-1.56,1.31-1.68.84-.12,1.62.45,1.74,1.26.12.81-.47,1.56-1.31,1.68-.84.12-1.62-.45-1.74-1.26Z"/>
      <path class="cls-1" d="M591.68,517.84c.03-.17.06-.35.03-.53-.14-.93-1.03-1.57-1.99-1.44-.96.13-1.63.99-1.49,1.92.02.16.1.29.16.43h4.33c-.35-.12-.68-.27-1.03-.38Z"/>
      <path class="cls-1" d="M599.55,549c-.77.11-1.46-.37-1.67-1.07h-.47c.22.97,1.18,1.63,2.21,1.49.84-.12,1.48-.73,1.65-1.49h-.45c-.16.55-.64.98-1.26,1.07Z"/>
      <path class="cls-1" d="M604.06,548.45c.19,1.35.28,2.69.24,4.05,0,.31.17.52.4.63-.1,1.71-.38,3.4-.86,5.07-.23-.06-.47-.08-.71-.05-.96.13-1.63.99-1.49,1.92.14.93,1.03,1.57,1.99,1.44.96-.13,1.63-.99,1.49-1.92-.08-.54-.43-.95-.88-1.21.5-1.71.8-3.44.9-5.19.25-.04.46-.2.47-.52.04-1.47-.04-2.93-.25-4.39-.02-.15-.09-.25-.17-.33h-.93c-.14.12-.24.28-.21.51Z"/>
      <path class="cls-1" d="M583.78,531.26c-1.08.15-1.84,1.12-1.68,2.16.16,1.04,1.16,1.77,2.24,1.62.56-.08,1.02-.37,1.32-.78v-2.22c-.42-.56-1.13-.88-1.88-.78Z"/>
      <path class="cls-1" d="M581.42,527.46c0-.05,0-.11,0-.16-.16-1.04-1.16-1.77-2.24-1.62-1.08.15-1.84,1.12-1.68,2.16.16,1.04,1.16,1.77,2.24,1.62.87-.12,1.52-.78,1.66-1.58,1.46.09,2.88.33,4.27.65v-.43c-1.38-.31-2.79-.55-4.24-.64ZM579.67,529.04c-.84.12-1.62-.45-1.74-1.26s.47-1.56,1.31-1.68c.84-.12,1.62.45,1.74,1.26.12.81-.47,1.56-1.31,1.68Z"/>
      <path class="cls-1" d="M604.8,577.25c-3.75,3.33-8.04,5.86-12.83,7.54-.3.1-.41.33-.39.56-2.08.67-4.22,1.18-6.42,1.49,0-.02,0-.05,0-.07-.14-.93-1.03-1.57-1.99-1.44-.96.13-1.63.99-1.49,1.92.14.93,1.03,1.57,1.99,1.44.84-.12,1.42-.79,1.47-1.56l.02.14c2.25-.31,4.45-.83,6.57-1.52.16.2.44.33.76.22,4.68-1.64,8.91-4.09,12.62-7.28v-1.58c-.1.02-.21.06-.31.15Z"/>
      <path class="cls-1" d="M589.83,581.01c.33-.1.43-.35.39-.59,1.07-.36,2.12-.75,3.14-1.22.41.58,1.14.92,1.91.81,1.08-.15,1.83-1.12,1.68-2.16-.16-1.04-1.16-1.77-2.24-1.62-1.08.15-1.84,1.12-1.68,2.16.02.15.07.29.12.43-1.02.46-2.06.85-3.13,1.21-.17-.18-.43-.28-.72-.19-1.39.42-2.8.71-4.22.94-.19-1.25-.43-2.88-.43-2.88-.05-.32-.27-.49-.52-.53l-.17-1.14c2.83-.44,5.59-1.31,8.2-2.63.3-.15.39-.43.35-.68,3.13-1.73,5.86-4.09,8.02-7.03.21.04.43.05.65.02,1.08-.15,1.83-1.12,1.68-2.16-.16-1.04-1.16-1.77-2.24-1.62-1.08.15-1.83,1.12-1.68,2.16.1.67.55,1.2,1.14,1.46-2.1,2.82-4.74,5.1-7.76,6.78-.16-.17-.41-.24-.69-.1-4.74,2.41-9.92,3.31-15.24,2.66-.31-.04-.53.11-.64.32-1.58-.26-3.13-.64-4.62-1.18.02-.24-.09-.49-.39-.61-1.63-.65-3.16-1.47-4.61-2.42l.77-.99c.24.08.52.04.71-.21.43-.55.86-1.1,1.28-1.65,1.58.98,3.29,1.77,5.14,2.33.32.1.59-.03.75-.24,1.46.37,2.98.57,4.52.61.23.82,1.03,1.38,1.92,1.25.78-.11,1.35-.7,1.46-1.42,0,0,.02,0,.03,0l-.02-.14c0-.12.04-.23.02-.36-.14-.93-1.03-1.57-1.99-1.44-.88.12-1.48.85-1.48,1.68-1.47-.04-2.92-.23-4.31-.58,0-.23-.11-.45-.41-.54-1.91-.58-3.68-1.4-5.28-2.43-.08-.09-.18-.16-.3-.2-.97-.65-1.88-1.38-2.71-2.2l2.14-2.75c.62.67,1.31,1.29,2.07,1.87.25.19.52.17.72.03,1.62,1.1,3.46,1.9,5.43,2.33.06.22.23.41.53.46,6.46.96,12.66-1.71,16.14-7.05.16-.24.12-.49,0-.69,1.49-2.64,2.16-5.74,1.68-8.95l-.44.06c.45,3.03-.19,6.01-1.63,8.58-.23-.08-.5-.04-.68.23-3.24,4.98-8.88,7.45-14.91,6.55-.35-.05-.57.13-.67.38-1.88-.42-3.64-1.18-5.19-2.24.09-.23.06-.51-.2-.71-3.02-2.3-4.89-5.38-5.52-9.03-.05-.29-.25-.45-.48-.5-.18-1.73-.04-3.48.43-5.15.27.1.55.15.86.11.96-.13,1.63-.99,1.49-1.92-.14-.93-1.03-1.57-1.99-1.44-.96.13-1.63.99-1.49,1.92.07.48.35.88.73,1.14-.49,1.74-.65,3.57-.46,5.37-.25.09-.45.31-.39.65.5,2.92,1.75,5.51,3.68,7.67l-2.15,2.76c-1.28-1.31-2.38-2.8-3.27-4.46-.14-.27-.39-.36-.64-.35-.74-1.58-1.28-3.28-1.55-5.08-.19-1.25-.23-2.51-.15-3.76.11,0,.22.03.34.02.96-.13,1.63-.99,1.49-1.92-.14-.93-1.03-1.57-1.99-1.44-.96.13-1.63.99-1.49,1.92.1.67.59,1.17,1.22,1.36-.08,1.29-.04,2.59.16,3.87.27,1.83.82,3.56,1.57,5.17-.21.15-.32.41-.16.71,1.54,2.91,3.71,5.35,6.34,7.22-.42.54-.83,1.07-1.25,1.61-.2.25-.16.52,0,.72l-.78,1c-.72-.49-1.43-1-2.1-1.57-.64-.54-1.43.48-.79,1.02,2.21,1.84,4.67,3.3,7.37,4.38.31.12.57.01.73-.18,1.52.55,3.1.95,4.71,1.21.03.25.2.48.54.52,2.46.3,4.91.27,7.31-.06l.17,1.14c-.23.11-.4.33-.35.65.11.74.27,1.8.43,2.91-1.98.24-3.97.32-6,.21-.31-.02-.52.14-.64.35-1.18-.1-2.35-.24-3.51-.47.1-.28.14-.57.09-.88-.16-1.04-1.16-1.77-2.24-1.62-1.08.15-1.84,1.12-1.68,2.16.16,1.04,1.16,1.77,2.24,1.62.64-.09,1.16-.47,1.45-.97l-.02.1c1.19.24,2.39.38,3.6.49.03.25.2.47.55.49,4.17.22,8.23-.27,12.22-1.46ZM594.77,576.65c.84-.12,1.62.45,1.74,1.26s-.47,1.56-1.31,1.68c-.84.12-1.62-.45-1.74-1.26s.46-1.56,1.31-1.68ZM599.37,564.23c-.12-.81.47-1.56,1.31-1.68.84-.12,1.62.45,1.74,1.26s-.47,1.56-1.31,1.68c-.84.12-1.62-.45-1.74-1.26ZM571.99,581.94c-.84.12-1.62-.45-1.74-1.26-.12-.81.46-1.56,1.31-1.68.84-.12,1.62.45,1.74,1.26s-.47,1.56-1.31,1.68Z"/>
      <path class="cls-1" d="M592.32,565.82c-.24.2-.28.47-.19.7-1.38,1.06-2.91,1.96-4.58,2.64-.36-.73-1.18-1.19-2.06-1.07-1.08.15-1.84,1.12-1.68,2.16.16,1.04,1.16,1.77,2.24,1.62,1.08-.15,1.84-1.12,1.68-2.16,0-.05-.03-.1-.04-.14,1.71-.7,3.29-1.61,4.7-2.7.21.15.49.18.74-.04,2.22-1.86,3.98-4.09,5.27-6.64.15-.29.04-.54-.16-.69.76-1.68,1.29-3.48,1.52-5.36l-.16-.02c.09,0,.17,0,.26-.01,1.08-.15,1.84-1.12,1.68-2.16-.16-1.04-1.16-1.77-2.24-1.62-1.08.15-1.84,1.12-1.68,2.16.13.86.85,1.5,1.71,1.61-.23,1.83-.75,3.59-1.49,5.24-.25-.01-.51.09-.65.37-1.19,2.35-2.82,4.4-4.86,6.12ZM585.99,571.44c-.84.12-1.62-.45-1.74-1.26-.12-.81.47-1.56,1.31-1.68.84-.12,1.62.45,1.74,1.26.12.81-.46,1.56-1.31,1.68ZM598.06,552.42c-.12-.81.46-1.56,1.31-1.68.84-.12,1.62.45,1.74,1.26s-.47,1.56-1.31,1.68c-.84.12-1.62-.45-1.74-1.26Z"/>
      <path class="cls-1" d="M562.67,543.68c2.16-4.09,5.62-7.18,10-8.98.28-.12.39-.34.38-.56,1.3-.46,2.64-.82,4.04-1.02,1.62-.22,3.26-.25,4.87-.09l.05-.42c-1.65-.17-3.33-.14-4.98.09-1.43.2-2.8.57-4.12,1.04-.16-.21-.43-.34-.76-.2-4.71,1.93-8.38,5.28-10.7,9.67-.39.73.84,1.2,1.22.48Z"/>
      <path class="cls-1" d="M588.84,550.77l.44-.06c-.15-1-.48-1.92-.91-2.77h-.45c.45.85.77,1.79.93,2.83Z"/>
      <path class="cls-1" d="M579.36,542.34c-.12-.82-.28-1.89-.39-2.64-.05-.32-.27-.49-.52-.53l-.15-1.03c1.84-.2,3.72-.08,5.6.41.28.07.52-.03.69-.19.37.12.73.29,1.09.43v-.46c-.3-.12-.58-.26-.89-.36.05-.26-.05-.52-.4-.61-3.84-1-7.65-.73-11.29.85-.31.14-.41.41-.36.66-1.21.62-2.33,1.4-3.34,2.33-.43-.48-1.09-.75-1.78-.65-1.08.15-1.84,1.12-1.68,2.16.16,1.04,1.16,1.77,2.24,1.62,1.08-.15,1.84-1.12,1.68-2.16-.03-.22-.11-.42-.21-.61.99-.92,2.1-1.69,3.29-2.31.17.17.42.25.7.12,1.38-.6,2.79-.99,4.23-1.19l.16,1.04c-.23.11-.4.33-.35.65.09.63.3,1.98.39,2.61-2.63.48-5.07,1.97-6.67,4.4-.21.32-.09.66.15.86-.89,1.64-1.29,3.55-.99,5.54l.44-.06c-.29-1.97.07-3.79.89-5.33.2.03.42-.03.57-.25,2.87-4.36,8.62-5.39,12.9-2.25.11.08.22.12.33.13v-1.45c-1.95-1.28-4.16-1.85-6.31-1.74ZM568.1,543.92c-.84.12-1.62-.45-1.74-1.26-.12-.81.46-1.56,1.31-1.68.84-.12,1.62.45,1.74,1.26.12.81-.47,1.56-1.31,1.68Z"/>
      <path class="cls-1" d="M580.61,560.87c.1.24.32.42.67.37,4.13-.68,7.2-3.45,8.25-7.34.22-.79-1.1-.94-1.31-.16-.9,3.32-3.64,5.67-7.13,6.24-.3.05-.47.25-.52.47-2.36.18-4.71-.54-6.52-2.01l-.28.32c1.91,1.55,4.37,2.3,6.84,2.11Z"/>
      <path class="cls-1" d="M596.15,474.68c3.07.61,6.08,1.38,9.06,2.31.3.09.55-.01.72-.19,1.52.49,3.03,1.03,4.52,1.6,0,.11-.04.22-.02.33.14.93,1.03,1.57,1.99,1.44.96-.13,1.63-.99,1.49-1.92-.14-.93-1.03-1.57-1.99-1.44-.68.09-1.2.56-1.41,1.15-1.45-.56-2.92-1.08-4.41-1.56.03-.25-.07-.5-.4-.6-2.82-.87-5.67-1.6-8.56-2.2,1.6-3.42,2.66-7.04,3.56-10.68.08-.31-.08-.52-.31-.62.43-1.8.84-3.73,1.24-5.8.19.03.39.04.59.01,1.08-.15,1.84-1.12,1.68-2.16-.16-1.04-1.16-1.77-2.24-1.62-1.08.15-1.84,1.12-1.68,2.16.1.7.59,1.25,1.23,1.49-.4,2.1-.82,4.04-1.25,5.86-.25.04-.49.21-.57.51-.94,3.77-2.04,7.53-3.78,11.05-.2.4.14.79.53.87ZM600.42,454.84c-.12-.81.47-1.56,1.31-1.68.84-.12,1.62.45,1.74,1.26.12.81-.46,1.56-1.31,1.68-.84.12-1.62-.45-1.74-1.26Z"/>
      <path class="cls-1" d="M603.12,420.88c.23-3.51.39-7.03.49-10.55,0-.31-.18-.53-.42-.63.06-2.47.06-3.95.06-3.98h-.44s0,1.5-.06,3.93c-.24.04-.44.21-.45.52-.1,3.52-.27,7.04-.49,10.55-.05.82,1.26.98,1.31.16Z"/>
      <path class="cls-1" d="M620.38,412.58c.41.03.83.04,1.25.06h3.91v.43c.72-.02,1.44-.05,2.16-.09l.29,1.97c-.82.08-1.63.13-2.45.18v1.27c2.16-.14,4.32-.35,6.47-.62.3-.04.47-.23.52-.45.18-.02.36-.04.55-.07.36-.05.72-.1,1.09-.16.35.77,1.19,1.26,2.09,1.14,1.08-.15,1.83-1.12,1.68-2.16-.16-1.04-1.16-1.77-2.24-1.62-1.08.15-1.84,1.12-1.68,2.16,0,.02.01.04.02.07-.52.08-1.03.15-1.54.22-.1-.24-.33-.43-.67-.39-1.13.14-2.26.26-3.39.37l-.29-1.95c1.68-.1,3.37-.25,5.05-.45.33-.04.5-.25.54-.5.42-.05.84-.1,1.25-.16.84-.12,1.65-.24,2.43-.37.27.75,1.03,1.26,1.88,1.14.96-.13,1.63-.99,1.49-1.92s-1.03-1.57-1.99-1.44c-.92.13-1.55.92-1.49,1.81-1.15.18-2.37.36-3.64.52-.11-.22-.34-.38-.66-.34-3.34.39-6.69.62-10.05.59-.31,0-.53.17-.64.39-.62-.02-1.23-.04-1.84-.08,0-.12.04-.23.02-.35-.14-.93-1.03-1.57-1.99-1.44-.96.13-1.63.99-1.49,1.92.02.13.08.24.13.36h3.23s.02-.04.03-.06ZM635.76,412.9c.84-.12,1.62.45,1.74,1.26.12.81-.47,1.56-1.31,1.68-.84.12-1.62-.45-1.74-1.26-.12-.81.46-1.56,1.31-1.68Z"/>
      <path class="cls-1" d="M649.1,419.35c1.66-.29,3.31-.6,4.96-.93.41-.08.6-.39.62-.71.84-.17,1.68-.34,2.52-.52.24-.05.19-.43-.06-.37-.84.19-1.68.35-2.52.52-.12-.28-.38-.49-.78-.41-1.65.33-3.31.64-4.96.93-.98.17-.77,1.66.22,1.48Z"/>
      <path class="cls-1" d="M556.43,407.65c.09.33.36.48.64.5.26.98.52,1.97.78,2.95.05.2.38.15.33-.05-.26-.98-.52-1.97-.78-2.95.25-.09.43-.31.34-.64-.35-1.31-.69-2.62-1.04-3.92l.88-.12c.11.22.34.38.68.33.25-.03.64-.09.94-.13.24,1.09.48,2.19.72,3.29.07.31.3.47.56.51l.61,2.82c-.72.29-1.19,1-1.08,1.78.14.93,1.03,1.57,1.99,1.44.96-.13,1.63-.99,1.49-1.92-.14-.93-1.03-1.57-1.99-1.44l-.6-2.73c.22-.1.38-.32.31-.63-.54-2.48-1.08-4.96-1.62-7.44-.17-.8-1.48-.62-1.31.18.21.97.42,1.94.64,2.91-.28.04-.57.08-.85.12-.34.05-.51.26-.55.5l-.92.13c-.33-1.24-.66-2.48-.98-3.72-.21-.79-1.52-.61-1.31.18.71,2.69,1.42,5.37,2.13,8.06Z"/>
      <path class="cls-1" d="M547.44,410.39c-.15-.76-.31-1.52-.46-2.28.3-.11.52-.37.44-.76-.29-1.43-.58-2.85-.87-4.28-.08-.39-.39-.57-.71-.6-.13-.63-.26-1.26-.38-1.9-.05-.24-.43-.18-.38.05.13.63.26,1.26.38,1.9-.3.11-.52.37-.44.76.29,1.43.58,2.85.87,4.28.08.39.39.57.71.6.15.76.31,1.52.46,2.28.05.24.43.18.38-.05Z"/>
      <path class="cls-1" d="M566.9,453.36h1.67c-.33-.15-.69-.24-1.08-.18-.21.03-.4.1-.58.18Z"/>
      <path class="cls-1" d="M539.6,564.57s-.05.01-.08.02c-.39-1.14-.73-2.3-1.01-3.48.22-.1.36-.32.3-.62-.77-3.59-1.09-7.19-.93-10.85.01-.31-.16-.52-.39-.63.11-1.55.3-3.1.59-4.64.1,0,.19.03.29.02.96-.13,1.63-.99,1.49-1.92-.14-.93-1.03-1.57-1.99-1.44-.96.13-1.63.99-1.49,1.92.1.68.62,1.21,1.26,1.39-.29,1.53-.48,3.07-.59,4.61-.25.04-.47.2-.48.53-.17,3.77.13,7.49.93,11.19.07.31.31.47.57.51.29,1.2.63,2.38,1.03,3.54-.8.33-1.31,1.15-1.18,2.02.16,1.04,1.16,1.77,2.24,1.62,1.08-.15,1.83-1.12,1.68-2.16-.16-1.04-1.16-1.77-2.24-1.62ZM540.1,567.93c-.84.12-1.62-.45-1.74-1.26-.12-.81.47-1.56,1.31-1.68.84-.12,1.62.45,1.74,1.26.12.81-.47,1.56-1.31,1.68Z"/>
      <path class="cls-1" d="M527.91,519.47c.22-.33.45-.65.68-.97.05.02.1.02.15.03v-1.72c-.17.24-.36.46-.54.7-.19.27-.14.55.02.75-.77,1.1-1.51,2.21-2.2,3.35l.22.12c-.33-.14-.69-.2-1.07-.14-1.08.15-1.84,1.12-1.68,2.16s1.16,1.77,2.24,1.62c1.08-.15,1.84-1.12,1.68-2.16-.09-.61-.48-1.11-1.01-1.39.4-.67.83-1.32,1.26-1.97l1.07.77v-.53l-.84-.6ZM526.99,523.26c.12.81-.47,1.56-1.31,1.68-.84.12-1.62-.45-1.74-1.26-.12-.81.47-1.56,1.31-1.68.84-.12,1.62.45,1.74,1.26Z"/>
      <path class="cls-1" d="M527.31,531.35c-.12-.81.47-1.56,1.31-1.68.04,0,.09,0,.13,0v-.43c-.06,0-.13,0-.19,0-1.08.15-1.84,1.12-1.68,2.16.14.92.94,1.59,1.87,1.63v-.45c-.71-.04-1.33-.53-1.44-1.24Z"/>
      <path class="cls-1" d="M557.26,510.76c.27-.14.37-.38.36-.62,1.51-.75,3.04-1.45,4.63-2.04l2.01,1.45c-.09.23-.04.5.22.69.8.58,1.6,1.15,2.4,1.73-1.15.34-2.28.71-3.4,1.14-.31.12-.41.37-.38.62-.42.17-.83.38-1.24.56-.26-.77-1.03-1.28-1.89-1.16-.96.13-1.63.99-1.49,1.92.14.93,1.03,1.57,1.99,1.44.91-.13,1.53-.9,1.48-1.77.44-.2.88-.42,1.33-.6.17.18.43.28.73.16,3.21-1.23,6.5-2.08,9.91-2.58.31-.05.49-.25.53-.48.82-.1,1.65-.18,2.47-.24l.27,1.81c-.23.11-.4.33-.35.65.11.73.22,1.47.33,2.2-.88.06-1.75.14-2.63.26-.34.05-.5.28-.53.53-.98.15-1.95.33-2.91.56-.1-.22-.32-.38-.65-.29-4.18,1.09-8.06,2.77-11.67,5.07-.29.19-.32.46-.2.7-2.22,1.49-4.28,3.2-6.13,5.14v.54l1.16.84c-.08.23-.04.5.22.69.77.56,1.54,1.11,2.32,1.67-.98,1.05-1.91,2.14-2.75,3.31-.19.27-.14.54.02.74-1.25,1.87-2.29,3.88-3.1,6.02-.26-.07-.53-.09-.82-.05-1.08.15-1.84,1.12-1.68,2.16s1.16,1.77,2.24,1.62c1.08-.15,1.84-1.12,1.68-2.16-.09-.62-.49-1.12-1.02-1.4.43-1.14.93-2.24,1.49-3.3l1.43,1.03c-.09.23-.04.5.22.69.84.61,1.69,1.22,2.53,1.83-2.34,5.13-2.87,10.92-1.32,16.6.09.32.36.48.64.5.7,2.21,1.69,4.32,3.03,6.27-.54.41-.86,1.07-.76,1.77.16,1.04,1.16,1.77,2.24,1.62,1.08-.15,1.84-1.12,1.68-2.16-.16-1.04-1.16-1.77-2.24-1.62-.2.03-.38.09-.55.17-1.31-1.91-2.28-3.97-2.97-6.14.19-.11.31-.31.24-.59-2.29-8.43.05-17.19,6.5-23.35.22-.21.24-.47.17-.7,2.32-2.07,5.05-3.73,8.14-4.84.38.7,1.18,1.13,2.03,1.01,1.08-.15,1.84-1.12,1.68-2.16-.16-1.04-1.16-1.77-2.24-1.62-1.08.15-1.84,1.12-1.68,2.16.01.07.04.14.05.21-3.12,1.12-5.89,2.8-8.24,4.89-.21-.15-.48-.19-.73.05-2.11,2.01-3.82,4.29-5.09,6.74-.77-.55-1.54-1.11-2.31-1.66-.26-.19-.54-.15-.75,0l-1.49-1.08c.42-.77.87-1.52,1.35-2.24.23.07.5.03.68-.23,2.39-3.35,5.34-6.16,8.86-8.4.27-.17.32-.42.24-.63,1.58-.94,3.25-1.75,5-2.41.33.8,1.19,1.31,2.12,1.18,1.08-.15,1.84-1.12,1.68-2.16-.16-1.04-1.16-1.77-2.24-1.62-1.08.15-1.83,1.12-1.68,2.16,0,0,0,.01,0,.02-1.81.68-3.53,1.52-5.15,2.49-.21-.15-.51-.2-.79-.02-2,1.28-3.8,2.75-5.45,4.38-.81-.58-1.62-1.16-2.42-1.75-.26-.19-.54-.15-.75,0l-1.08-.78c1.83-1.92,3.88-3.61,6.08-5.08.21.12.47.14.72-.02,3.41-2.17,7.09-3.78,11.04-4.81.3-.08.46-.3.51-.54.97-.23,1.95-.41,2.94-.57.11.21.34.36.65.31,1.76-.23,3.53-.36,5.31-.36.31,0,.53-.18.64-.4,1.06.02,2.11.07,3.16.18,0,.04,0,.07,0,.1.13.91.92,1.57,1.83,1.63v-.09h.75c.9-.28,1.48-1.15,1.35-2.08-.16-1.04-1.16-1.77-2.24-1.62-.89.12-1.56.81-1.67,1.63-1.03-.11-2.07-.16-3.11-.18-.04-.24-.2-.44-.54-.44-.57,0-1.14.03-1.71.05-.13-.88-.35-2.33-.35-2.33-.05-.32-.27-.49-.52-.53l-.26-1.77c1.35-.08,2.7-.11,4.05-.06.05.23.22.42.54.43,2.4.13,4.77.44,7.11.93.31.06.53-.07.63-.28,1.47.33,2.91.73,4.33,1.22,0,.12,0,.24.02.36.16,1.04,1.16,1.77,2.24,1.62,1.08-.15,1.83-1.12,1.68-2.16-.16-1.04-1.16-1.77-2.24-1.62-.8.11-1.42.67-1.62,1.38-1.42-.48-2.87-.88-4.34-1.22-.04-.25-.2-.5-.53-.57-2.35-.49-4.72-.8-7.12-.92-.34-.02-.56.17-.66.41-2.36-.08-4.72.03-7.07.32-.1-.23-.33-.4-.67-.35-1.79.26-3.54.62-5.27,1.07-1.06-.76-2.12-1.53-3.18-2.29-.26-.19-.54-.15-.75,0l-2.2-1.59-.11.04c-1.63.6-3.2,1.32-4.74,2.08-.16-.2-.42-.31-.73-.15-1.48.77-2.91,1.62-4.3,2.51v1.54c1.56-1.04,3.15-2.02,4.83-2.89ZM551.29,543.03c.12.81-.47,1.56-1.31,1.68-.84.12-1.62-.45-1.74-1.26-.12-.81.46-1.56,1.31-1.68.84-.12,1.62.45,1.74,1.26ZM559.71,565.22c.84-.12,1.62.45,1.74,1.26.12.81-.46,1.56-1.31,1.68-.84.12-1.62-.45-1.74-1.26s.47-1.56,1.31-1.68ZM572.7,527.01c.84-.12,1.62.45,1.74,1.26.12.81-.46,1.56-1.31,1.68-.84.12-1.62-.45-1.74-1.26s.47-1.56,1.31-1.68ZM570.14,521.79c.84-.12,1.62.45,1.74,1.26s-.47,1.56-1.31,1.68c-.84.12-1.62-.45-1.74-1.26-.12-.81.47-1.56,1.31-1.68ZM585.58,514.94c.84-.12,1.62.45,1.74,1.26s-.46,1.56-1.31,1.68-1.62-.45-1.74-1.26c-.12-.81.47-1.56,1.31-1.68ZM595.79,511.82c.84-.12,1.62.45,1.74,1.26.12.81-.47,1.56-1.31,1.68-.84.12-1.62-.45-1.74-1.26-.12-.81.47-1.56,1.31-1.68Z"/>
      <path class="cls-1" d="M615.06,560.53c-.08.3.06.51.27.61-.32,1.14-.72,2.26-1.16,3.36-.24-.07-.49-.1-.76-.07-.96.13-1.63.99-1.49,1.92.14.93,1.03,1.57,1.99,1.44.96-.13,1.63-.99,1.49-1.92-.08-.52-.4-.93-.84-1.19.46-1.15.87-2.31,1.2-3.49.26-.04.52-.2.6-.51.14-.54.25-1.08.36-1.62l1,.72c-.09.23-.04.5.22.69.84.6,1.67,1.21,2.51,1.81-.82,2.92-1.97,5.75-3.43,8.47-.05.1-.07.18-.07.27h1.4c2.3-4.34,3.82-8.95,4.52-13.78.05-.32-.13-.54-.37-.63.06-.53.12-1.07.16-1.6,0,0,0,0,.01,0,.96-.13,1.63-.99,1.49-1.92-.14-.93-1.03-1.57-1.99-1.44-.96.13-1.63.99-1.49,1.92.12.78.77,1.32,1.54,1.41-.04.53-.09,1.06-.16,1.58-.24.05-.46.22-.5.52-.19,1.31-.45,2.59-.76,3.86-.69-.5-1.38-.99-2.07-1.49-.26-.19-.54-.15-.75,0l-1.17-.84c1.01-5.22.84-10.53-.47-15.72-.08-.32-.34-.47-.61-.5-.12-.42-.25-.83-.38-1.24v3.37c1.12,5.32,1.03,10.71-.32,16.02Z"/>
      <path class="cls-1" d="M625.83,501.21c-.25-.21-.52-.18-.72-.04-.97-.8-1.96-1.58-2.97-2.33.2-.35.3-.76.23-1.19-.16-1.04-1.16-1.77-2.24-1.62-1.08.15-1.84,1.12-1.68,2.16.16,1.04,1.16,1.77,2.24,1.62.48-.07.89-.3,1.19-.62,1.02.75,2,1.53,2.97,2.33-.08.23-.05.51.19.71,1.21,1.03,2.38,2.11,3.51,3.21l-.81,1.04c-.24-.08-.52-.04-.71.21-.75.97-1.51,1.94-2.26,2.91-1.96-1.92-4.03-3.73-6.24-5.41-.26-.2-.54-.16-.75-.01-.93-.68-1.88-1.34-2.86-1.98.15-.3.24-.62.19-.97-.14-.93-1.03-1.57-1.99-1.44-.96.13-1.63.99-1.49,1.92.14.93,1.03,1.57,1.99,1.44.44-.06.8-.28,1.07-.58.96.63,1.91,1.28,2.83,1.96-.08.23-.04.5.21.69,3.04,2.32,5.85,4.88,8.42,7.68.21.23.5.26.73.18,1.45,1.63,2.81,3.34,4.08,5.12-.34.4-.51.92-.43,1.47.16,1.04,1.16,1.77,2.24,1.62,1.08-.15,1.84-1.12,1.68-2.16-.11-.72-.62-1.28-1.28-1.51h-1.35c-.2.07-.39.16-.55.28-.07-.1-.14-.19-.21-.28h-.24v-.32c-1.13-1.55-2.32-3.05-3.59-4.48.15-.2.17-.46-.05-.71-.49-.53-1-1.05-1.5-1.57.8-1.03,1.59-2.05,2.39-3.08.2-.25.16-.52,0-.72l.77-1c.67.66,1.32,1.33,1.97,2.02v-1.86c-1.59-1.63-3.25-3.2-5-4.69ZM620.62,499.39c-.84.12-1.62-.45-1.74-1.26-.12-.81.46-1.56,1.31-1.68.84-.12,1.62.45,1.74,1.26.12.81-.47,1.56-1.31,1.68ZM632.28,517.91c.84-.12,1.62.45,1.74,1.26.12.81-.46,1.56-1.31,1.68-.84.12-1.62-.45-1.74-1.26-.12-.81.47-1.56,1.31-1.68Z"/>
      <path class="cls-1" d="M610.66,453.43c.12.82.84,1.39,1.67,1.42.05,1.11.12,2.24.19,3.39-.24.1-.42.32-.4.64.21,3.25.47,6.49.88,9.73.04.32.27.48.52.52.22,1.56.47,2.95.75,4.08-.6.34-.96,1-.86,1.7.14.93,1.03,1.57,1.99,1.44s1.63-.99,1.49-1.92c-.14-.93-1.03-1.57-1.99-1.44-.08.01-.14.05-.22.08-.28-1.1-.52-2.47-.73-4,.23-.11.4-.32.36-.63-.41-3.23-.67-6.48-.88-9.73-.02-.32-.23-.48-.47-.52-.07-1.13-.13-2.25-.18-3.35.89-.19,1.51-.99,1.38-1.88-.14-.93-1.03-1.57-1.99-1.44-.96.13-1.63.99-1.49,1.92Z"/>
      <path class="cls-1" d="M602.52,470.4c.14.93,1.03,1.57,1.99,1.44.96-.13,1.63-.99,1.49-1.92-.12-.81-.83-1.37-1.64-1.42l.7-7.61c.25-.04.46-.21.49-.52.25-2.66.49-5.32.73-7.98l.83-.11c.11.22.34.38.68.33.34-.05.83-.11,1.33-.18-.06,4.38-.13,8.76-.19,13.15,0,.31.19.53.43.63l-.09,6.08c-.08,0-.16,0-.25,0-1.08.15-1.84,1.12-1.68,2.16.16,1.04,1.16,1.77,2.24,1.62,1.08-.15,1.84-1.12,1.68-2.16-.12-.81-.76-1.43-1.55-1.59l.09-6.06c.24-.04.44-.21.44-.52.08-5.54.16-11.07.24-16.61,0-.31-.19-.53-.43-.63l.04-2.52c.11,0,.23,0,.35-.01,1.08-.15,1.83-1.12,1.68-2.16-.16-1.04-1.16-1.77-2.24-1.62-1.08.15-1.83,1.12-1.68,2.16.13.88.87,1.52,1.74,1.62h-.29s-.04,2.47-.04,2.47c-.24.04-.44.21-.44.52-.01.73-.02,1.45-.03,2.18-.64.09-1.53.21-1.53.21-.34.05-.51.26-.55.5l-.73.1c.15-1.67.31-3.34.46-5.02.03-.32-.15-.53-.38-.63l.47-5.1c.2.04.42.05.63.02,1.08-.15,1.84-1.12,1.68-2.16-.16-1.04-1.16-1.77-2.24-1.62-1.08.15-1.84,1.12-1.68,2.16.1.68.57,1.22,1.18,1.47l-.48,5.17c-.25.04-.46.21-.49.52-.41,4.48-.82,8.95-1.24,13.43-.03.32.15.53.38.63l-.71,7.68c-.91.18-1.53.99-1.4,1.89ZM608.63,444.28c-.12-.81.47-1.56,1.31-1.68.84-.12,1.62.45,1.74,1.26s-.47,1.56-1.31,1.68c-.84.12-1.62-.45-1.74-1.26ZM610.83,473.97c.12.81-.47,1.56-1.31,1.68-.84.12-1.62-.45-1.74-1.26-.12-.81.47-1.56,1.31-1.68.84-.12,1.62.45,1.74,1.26ZM605.7,439.54c-.12-.81.47-1.56,1.31-1.68.84-.12,1.62.45,1.74,1.26.12.81-.46,1.56-1.31,1.68-.84.12-1.62-.45-1.74-1.26Z"/>
      <path class="cls-1" d="M604.63,427.67c-.11.09-.2.21-.22.39-.18,2.08-.38,4.16-.59,6.24-.33.05-.64.09-.96.13-.34.05-.51.26-.55.51l-.57.08c.09-.67.19-1.33.27-2,.04-.32-.14-.53-.37-.63.1-.87.2-1.76.29-2.67.1,0,.2.03.31.02.96-.13,1.63-.99,1.49-1.92-.14-.93-1.03-1.57-1.99-1.44-.96.13-1.63.99-1.49,1.92.1.68.61,1.19,1.25,1.38-.09.9-.19,1.79-.29,2.66-.25.04-.46.21-.5.52-.74,6.09-1.73,12.17-3.34,18.11-.08.3.06.51.28.61-.73,2.54-1.53,4.79-2.4,6.72-.36-.19-.79-.28-1.23-.22-1.08.15-1.84,1.12-1.68,2.16.16,1.04,1.16,1.77,2.24,1.62,1.08-.15,1.84-1.12,1.68-2.16-.07-.46-.31-.85-.64-1.14.9-1.99,1.72-4.3,2.47-6.92.26-.04.5-.2.59-.5,1.4-5.15,2.31-10.4,3.02-15.68l.69-.1c.11.22.34.38.68.33.22-.03.42-.06.63-.09-.19,1.87-.4,3.74-.62,5.61-.04.31.13.53.36.63-.16,1.35-.33,2.66-.51,3.94-.17-.02-.34-.03-.52,0-1.08.15-1.83,1.12-1.68,2.16.16,1.04,1.16,1.77,2.24,1.62,1.08-.15,1.83-1.12,1.68-2.16-.11-.72-.63-1.28-1.3-1.52.18-1.29.35-2.62.52-3.99.25-.04.47-.21.51-.52.31-2.61.59-5.22.84-7.83h-.59v-5.87ZM595.82,459.76c.12.81-.47,1.56-1.31,1.68-.84.12-1.62-.45-1.74-1.26-.12-.81.46-1.56,1.31-1.68.84-.12,1.62.45,1.74,1.26ZM604.21,447.46c.12.81-.47,1.56-1.31,1.68-.84.12-1.62-.45-1.74-1.26-.12-.81.47-1.56,1.31-1.68.14-.02.26,0,.4.02,0,0,0,0,0,.01l.3.04c.54.17.97.61,1.05,1.19Z"/>
      <path class="cls-1" d="M604.26,420.89c-.07-.44.09-.85.37-1.17v-.58c-.58.4-.91,1.09-.81,1.81.08.53.39.96.81,1.25v-.58c-.18-.21-.33-.44-.37-.73Z"/>
      <path class="cls-1" d="M611.55,517.57c-.12-.81.47-1.56,1.31-1.68.84-.12,1.62.45,1.74,1.26.06.4-.06.78-.28,1.08h.51c.18-.34.27-.73.21-1.14-.16-1.04-1.16-1.77-2.24-1.62-1.08.15-1.83,1.12-1.68,2.16.03.22.11.41.21.6h.53c-.15-.19-.26-.4-.3-.66Z"/>
      <path class="cls-1" d="M615.42,519.82s-.02.05-.04.08v.42c.03.06.06.11.11.17.85.9,1.65,1.83,2.43,2.79l-.97,1.25c-.24-.08-.52-.04-.71.21-.29.37-.57.74-.86,1.1v4.33c1.59,2.41,2.93,4.97,3.99,7.69.11.28.33.38.56.38.9,2.47,1.58,5.04,1.99,7.71-.92.27-1.53,1.15-1.39,2.09.16,1.04,1.16,1.77,2.24,1.62,1.08-.15,1.83-1.12,1.68-2.16-.15-1-1.08-1.69-2.1-1.62-.42-2.68-1.1-5.27-2.02-7.77.22-.16.37-.42.24-.74-1.32-3.37-3.06-6.53-5.17-9.44,0,0,.02-.01.02-.02.62-.8,1.24-1.6,1.87-2.4.2-.25.16-.52,0-.72l.89-1.14c.63.79,1.25,1.6,1.84,2.43.18.25.43.3.66.23.13.19.25.38.37.57-.41.37-.65.89-.57,1.46.14.93,1.03,1.57,1.99,1.44.96-.13,1.63-.99,1.49-1.92-.14-.93-1.03-1.57-1.99-1.44-.21.03-.4.11-.57.2-.12-.19-.25-.38-.37-.57.16-.21.22-.49.03-.76-1.37-1.96-2.89-3.82-4.53-5.58-.23-.24-.53-.26-.78-.15-.12-.13-.25-.25-.37-.38v.62s.02.02.04.04ZM624.02,547.55c.12.81-.47,1.56-1.31,1.68-.84.12-1.62-.45-1.74-1.26s.47-1.56,1.31-1.68c.84-.12,1.62.45,1.74,1.26Z"/>
      <path class="cls-1" d="M601.61,516.23c.2-.35.29-.75.22-1.17-.16-1.04-1.16-1.77-2.24-1.62-1.08.15-1.84,1.12-1.68,2.16s1.16,1.77,2.24,1.62c.54-.07,1-.35,1.3-.74l-.08.16c.89.5,1.75,1.03,2.59,1.59h.8c-1.02-.7-2.06-1.38-3.15-1.99ZM600.09,516.79c-.84.12-1.62-.45-1.74-1.26-.12-.81.46-1.56,1.31-1.68.84-.12,1.62.45,1.74,1.26.12.81-.47,1.56-1.31,1.68Z"/>
      <path class="cls-1" d="M608.3,512.23c-.36.05-.67.19-.93.39-1.95-1.27-3.99-2.41-6.08-3.39.03-.25-.08-.51-.38-.64-4.66-2.07-9.54-3.45-14.62-4.12-.34-.05-.57.14-.66.37-1.5-.17-3-.29-4.52-.33,0-.1,0-.2-.01-.31-.16-1.04-1.16-1.77-2.24-1.62s-1.84,1.12-1.68,2.16c.16,1.04,1.16,1.77,2.24,1.62.82-.11,1.45-.7,1.64-1.43,1.52.03,3.03.16,4.54.33.05.23.22.42.53.46,4.97.66,9.74,2.01,14.29,4.04.3.13.55.04.71-.14,2.04.96,4.02,2.06,5.93,3.3-.33.4-.5.92-.42,1.46.16,1.04,1.16,1.77,2.24,1.62,1.08-.15,1.83-1.12,1.68-2.16-.16-1.04-1.16-1.77-2.24-1.62ZM579.35,505.95c-.84.12-1.62-.45-1.74-1.26-.12-.81.47-1.56,1.31-1.68.84-.12,1.62.45,1.74,1.26.12.81-.46,1.56-1.31,1.68ZM608.81,515.59c-.84.12-1.62-.45-1.74-1.26s.47-1.56,1.31-1.68c.84-.12,1.62.45,1.74,1.26s-.47,1.56-1.31,1.68Z"/>
      <path class="cls-1" d="M611.7,405.47c.01-.37-.21-.62-.49-.74.02-.65.04-1.23.06-1.77h-.52c-.02.53-.03,1.08-.06,1.71-.28.05-.52.25-.54.62-.15,3.88-.35,7.75-.57,11.63h1.55c.22-3.81.41-7.62.56-11.44Z"/>
      <path class="cls-1" d="M597.3,394.34c.12.78.7,1.38,1.44,1.61v-3.76c-.95.29-1.58,1.17-1.44,2.15Z"/>
      <path class="cls-1" d="M595.37,400.88c-.25.04-.48.21-.52.52-.77,4.98-1.56,9.97-2.45,14.93-.06.31.11.52.33.63-.32,1.78-.62,3.33-.88,4.48-.2-.04-.42-.06-.64-.03-.96.13-1.63.99-1.49,1.92.14.93,1.03,1.57,1.99,1.44.96-.13,1.63-.99,1.49-1.92-.08-.56-.46-.99-.95-1.24.26-1.18.57-2.77.91-4.6.25-.04.49-.21.54-.52.88-4.97,1.68-9.95,2.45-14.93.05-.31-.12-.53-.35-.63.17-1.12.33-2.14.47-3.07v-2.95c-.2,1.37-.52,3.48-.91,5.97Z"/>
      <path class="cls-1" d="M593.73,456.19c.96-.13,1.63-.99,1.49-1.92-.14-.93-1.03-1.57-1.99-1.44,0,0,0,0,0,0-.09-1.07-.26-2.04-.49-2.9.22-.16.36-.42.25-.74-.42-1.29-1.16-3.93-2.58-4.65-2.39-1.2-4.78-2.41-7.17-3.62-.29-.15-.54-.06-.7.12-1.19-.6-2.48-1.26-3.86-1.96-.02-.21-.12-.41-.36-.54-2.21-1.13-4.37-2.33-6.58-3.46-.29-.15-.54-.06-.7.12-.86-.44-1.75-.89-2.63-1.34.08-.24.12-.49.08-.76-.14-.93-1.03-1.57-1.99-1.44s-1.63.99-1.49,1.92c.14.93,1.03,1.57,1.99,1.44.53-.07.95-.37,1.22-.78.89.45,1.79.91,2.66,1.35-.02.25.08.51.36.66,2.2,1.13,4.37,2.33,6.58,3.46.34.17.61.03.75-.21,1.35.69,2.62,1.33,3.79,1.92-.02.25.08.51.36.66,2.31,1.17,4.61,2.33,6.92,3.5.07.03.11.07.15.09.13.17.27.35.39.53.7,1.09,1.18,2.26,1.58,3.48.09.28.31.39.53.38.23.86.4,1.82.48,2.9-.71.3-1.17,1-1.06,1.77.14.93,1.03,1.57,1.99,1.44Z"/>
      <path class="cls-1" d="M540.59,453.8c-.19-.04-.39-.06-.6-.03-.96.13-1.63.99-1.49,1.92.14.93,1.03,1.57,1.99,1.44.96-.13,1.63-.99,1.49-1.92-.09-.58-.48-1.02-.99-1.26.11-.27.25-.53.37-.79h-.48c-.1.22-.21.43-.3.64Z"/>
      <path class="cls-1" d="M543.3,450.38c1.3-2.12,2.83-4.09,4.58-5.89.22-.22.21-.47.07-.66,1.08-1.05,2.24-2.03,3.46-2.93.21.13.49.16.74-.02,1.65-1.15,3.4-2.15,5.24-3,.43-.2.56-.81.13-1.09-.68-.44-1.36-.88-2.04-1.32-.27-.18-.56-.13-.76.02l-1.21-.78c.08-.23.04-.49-.24-.66-.38-.25-.76-.49-1.15-.74-.18-.12-.46-.19-.66-.07-1.9,1.09-3.7,2.3-5.4,3.66-.06-.3-.12-.59-.18-.89-.06-.31-.3-.47-.55-.51l-.51-2.54s.05,0,.07,0c.96-.13,1.63-.99,1.49-1.92-.14-.93-1.03-1.57-1.99-1.44-.96.13-1.63.99-1.49,1.92.11.75.73,1.3,1.47,1.41l.52,2.63c-.23.1-.38.32-.32.63.13.66.26,1.32.39,1.97.09.45.67.74,1.06.41,1.77-1.49,3.67-2.82,5.68-3.99.25.16.51.33.76.49.27.18.56.13.76-.02l1.21.78c-.08.23-.04.49.24.66.39.25.77.5,1.16.75-1.57.78-3.08,1.65-4.52,2.65-.27.19-.3.46-.21.69-1.25.92-2.43,1.92-3.53,3-.25-.1-.55-.08-.78.16-1.5,1.55-2.83,3.22-4,5.01v1.92c.18,0,.36-.07.48-.28Z"/>
      <path class="cls-1" d="M578.42,451.6c-.69-.33-1.4-.62-2.13-.85.07-.23.1-.47.06-.71-.14-.93-1.03-1.57-1.99-1.44-.96.13-1.63.99-1.49,1.92s1.03,1.57,1.99,1.44c.55-.08.98-.4,1.24-.82.74.24,1.47.53,2.17.87-.01.24.09.5.36.65.41.22.81.47,1.21.72h2.15c-.89-.71-1.83-1.35-2.86-1.9-.3-.16-.55-.06-.7.13Z"/>
      <path class="cls-1" d="M541.14,415.67v.66c.16-.23.13-.47,0-.66Z"/>
      <path class="cls-1" d="M516.25,417.56c-.32-.65-1.04-1.07-1.82-.96-.96.13-1.63.99-1.49,1.92.14.93,1.03,1.57,1.99,1.44.96-.13,1.63-.99,1.49-1.92,0-.03-.02-.05-.03-.08,1.03-.42,2.35-.89,3.83-1.31v-.44c-1.54.43-2.91.92-3.98,1.35Z"/>
      <path class="cls-1" d="M543.83,406.7c-.15.21-.2.49-.02.76,1.48,2.16,3.15,4.15,4.96,6.03-.84.08-1.67.16-2.51.24-.33.03-.5.24-.54.48l-2.56.24c-.69-.61-1.37-1.24-2.03-1.88v1.78c.09.08.17.17.26.25l-.26.33v.71l.58-.75c1.86,1.69,3.84,3.26,5.9,4.74.27.2.56.15.77-.01,1.87,1.31,3.89,2.6,6.06,3.88-.12.27-.19.57-.15.89.14.93,1.03,1.57,1.99,1.44.96-.13,1.63-.99,1.49-1.92-.14-.93-1.03-1.57-1.99-1.44-.48.07-.88.31-1.15.65-2.15-1.27-4.15-2.55-6-3.84.07-.22.02-.48-.23-.66-1.66-1.19-3.26-2.45-4.8-3.77l2.18-.21c.11.22.34.39.66.36,1.16-.11,2.32-.22,3.48-.33.48.47.96.94,1.46,1.4.24.22.5.2.69.06.8.7,1.64,1.39,2.51,2.07-.08.23-.05.5.21.7,2.55,1.94,5.24,3.69,8.04,5.3.28.16.57.1.78-.04,1.27.71,2.6,1.39,3.97,2.07-.05.2-.07.41-.04.62.14.93,1.03,1.57,1.99,1.44.96-.13,1.63-.99,1.49-1.92s-1.03-1.57-1.99-1.44c-.58.08-1.03.44-1.28.91-1.33-.66-2.63-1.33-3.87-2.02.08-.22.03-.47-.25-.63-2.8-1.6-5.49-3.35-8.04-5.3-.26-.2-.54-.16-.74-.02-.87-.68-1.71-1.37-2.51-2.07.09-.24.07-.52-.17-.74-2.77-2.52-5.24-5.3-7.34-8.37-.18-.26-.43-.31-.66-.23-1.16-1.8-2.17-3.65-2.99-5.57.86-.21,1.44-.99,1.32-1.86-.11-.72-.67-1.26-1.37-1.4v4.14c.77,1.7,1.65,3.35,2.69,4.95Z"/>
      <path class="cls-1" d="M538.37,417.77c-.56-.32-1.13-.63-1.7-.93h-3.15c2.42.93,4.67,2.34,6.94,3.55.29.15.54.07.69-.11,2.54,1.35,5.65,2.98,9.34,4.89-.14.31-.21.67-.15,1.03.16,1.04,1.16,1.77,2.24,1.62,1.08-.15,1.84-1.12,1.68-2.16-.16-1.04-1.16-1.77-2.24-1.62-.55.08-1.01.36-1.31.76-3.72-1.93-6.85-3.56-9.4-4.91.02-.25-.07-.52-.36-.67-.48-.25-.96-.52-1.44-.8.41-.53.82-1.05,1.23-1.58h-1.65c-.24.31-.48.62-.72.93ZM552.08,424.46c.84-.12,1.62.45,1.74,1.26.12.81-.46,1.56-1.31,1.68-.84.12-1.62-.45-1.74-1.26-.12-.81.47-1.56,1.31-1.68Z"/>
      <path class="cls-1" d="M609.82,434.31c-.08,0-.15-.02-.23-.01-.96.13-1.63.99-1.49,1.92.14.93,1.03,1.57,1.99,1.44.96-.13,1.63-.99,1.49-1.92-.1-.7-.65-1.24-1.32-1.4v-.79s-.43,0-.43,0v.76Z"/>
      <path class="cls-1" d="M613.97,441.17c.02.31.22.48.46.52.24,4.5.59,8.54,1.01,12.16-.22.11-.39.32-.35.63.7,5.78,1.67,11.54,3.3,17.15.09.3.34.46.6.49.65,2.12,1.32,3.9,1.98,5.38-.5.36-.8.94-.7,1.58.14.93,1.03,1.57,1.99,1.44.96-.13,1.63-.99,1.49-1.92-.14-.93-1.03-1.57-1.99-1.44-.14.02-.26.08-.38.13-.71-1.61-1.35-3.37-1.93-5.25.2-.11.33-.31.24-.6-1.63-5.61-2.6-11.37-3.3-17.15-.04-.3-.24-.47-.48-.51-.48-4.15-.81-8.29-1.03-12.16.23-.11.41-.32.39-.63-.13-2.48-.21-4.97-.27-7.45h-1.31c.06,2.54.14,5.09.27,7.63Z"/>
      <path class="cls-1" d="M614.71,404.52c-.06,4.13-.12,8.26-.18,12.38h1.55c.02-1.14.03-2.27.05-3.41l3.29-.45c-.04,1.21-.09,2.43-.13,3.64,0,.09.04.15.07.22h1.47s.01-.02.01-.03c.14-4.64.33-9.28.6-13.92h-1.56c-.18,3.19-.32,6.39-.44,9.59l-3.3.46c.04-2.76.08-5.52.12-8.28,0-.37-.22-.62-.5-.74v-1.02s-.5,0-.5,0v.96c-.3.05-.53.24-.54.62Z"/>
      <path class="cls-1" d="M564.51,451.71c1.3-.56,2.69-.97,4.16-1.18.28.89,1.19,1.47,2.17,1.34,1.08-.15,1.84-1.12,1.68-2.16-.16-1.04-1.16-1.77-2.24-1.62-1.03.14-1.76,1.04-1.69,2.02-1.5.22-2.92.64-4.25,1.21-.16-.2-.42-.31-.73-.16-.68.33-1.33.72-1.95,1.12l-1.36-.98c.09-.23.04-.5-.22-.69-.45-.33-.9-.65-1.36-.98,1.66-1.18,3.49-2.14,5.51-2.85.3-.1.41-.33.39-.56,1.1-.33,2.24-.59,3.41-.75.9-.13,1.81-.17,2.72-.19.16.9,1.03,1.53,1.98,1.39.96-.13,1.63-.99,1.49-1.92-.14-.93-1.03-1.57-1.99-1.44-.83.11-1.4.77-1.47,1.54-.93.01-1.87.06-2.79.19-1.21.17-2.38.43-3.52.78-.17-.2-.44-.32-.75-.21-3.7,1.3-6.89,3.43-9.43,6.24-.72-.52-1.45-1.05-2.17-1.57-.26-.19-.54-.15-.75,0l-.89-.64c.76-.9,1.55-1.77,2.44-2.58.23-.21.26-.49.17-.72.61-.52,1.25-1.02,1.91-1.49.42.33.96.5,1.54.42,1.08-.15,1.84-1.12,1.68-2.16-.16-1.04-1.16-1.77-2.24-1.62-1.08.15-1.84,1.12-1.68,2.16.05.34.2.64.4.89-.64.46-1.27.95-1.87,1.46-.21-.14-.48-.17-.72.06-2.9,2.65-5.17,5.76-6.77,9.29-.14.31-.01.56.2.71-.69,1.67-1.22,3.41-1.54,5.19-.21-.04-.42-.05-.64-.02-1.08.15-1.84,1.12-1.68,2.16.16,1.04,1.16,1.77,2.24,1.62,1.08-.15,1.84-1.12,1.68-2.16-.1-.68-.57-1.22-1.18-1.47.32-1.78.84-3.51,1.54-5.17.24,0,.48-.1.6-.37.96-2.12,2.2-4.07,3.66-5.86l.9.65c-.09.23-.04.5.22.69.71.51,1.41,1.02,2.12,1.53-.41.5-.79,1.02-1.16,1.56-.18.27-.13.55.03.75-1.27,2.07-2.18,4.36-2.65,6.8-.14-.01-.28-.04-.43-.02-.96.13-1.63.99-1.49,1.92.14.93,1.03,1.57,1.99,1.44.96-.13,1.63-.99,1.49-1.92-.09-.63-.55-1.11-1.13-1.32.46-2.39,1.35-4.62,2.58-6.64.23.08.49.03.67-.24,1.22-1.81,2.68-3.38,4.33-4.71.55.39,1.09.79,1.64,1.18.26.19.54.15.75,0l1.25.9c-.37.26-.72.55-1.07.83h2.13c.58-.38,1.17-.73,1.8-1.04.28-.14.38-.38.36-.61ZM570.34,448.5c.84-.12,1.62.45,1.74,1.26s-.46,1.56-1.31,1.68c-.84.12-1.62-.45-1.74-1.26s.47-1.56,1.31-1.68ZM556.01,441.91c.84-.12,1.62.45,1.74,1.26.12.81-.47,1.56-1.31,1.68-.84.12-1.62-.45-1.74-1.26-.12-.81.46-1.56,1.31-1.68ZM545.13,462.91c.12.81-.47,1.56-1.31,1.68-.84.12-1.62-.45-1.74-1.26-.12-.81.47-1.56,1.31-1.68.84-.12,1.62.45,1.74,1.26Z"/>
      <path class="cls-1" d="M556.88,483.57c-.96.13-1.63.99-1.49,1.92.14.93,1.03,1.57,1.99,1.44.46-.06.85-.3,1.12-.62.56.35,1.11.67,1.64.96-.03.25.07.53.35.68,1.15.62,2.32,1.22,3.52,1.75.13,1.38.26,2.77.39,4.15.03.32.24.48.49.52l.43,4.54c-1.04.18-1.75,1.13-1.6,2.14.16,1.04,1.16,1.77,2.24,1.62,1.08-.15,1.84-1.12,1.68-2.16-.14-.92-.94-1.6-1.88-1.63l-.43-4.57c.23-.1.41-.32.38-.64-.14-1.49-.28-2.99-.42-4.48-.02-.22-.2-.41-.4-.5-1.34-.56-2.62-1.23-3.89-1.92-.28-.15-.53-.08-.68.1-.51-.29-1.04-.6-1.59-.94.13-.28.22-.59.17-.92-.14-.93-1.03-1.57-1.99-1.44ZM565.46,499.3c.84-.12,1.62.45,1.74,1.26s-.47,1.56-1.31,1.68c-.84.12-1.62-.45-1.74-1.26s.46-1.56,1.31-1.68Z"/>
      <path class="cls-1" d="M561.17,498.95l-.22-2.77c.23-.1.42-.32.39-.64-.11-1.4-.22-2.8-.33-4.2-.06-.82-1.37-.63-1.31.18.11,1.4.22,2.8.33,4.2.02.32.24.48.48.52l.21,2.68c-.07,0-.14-.02-.22-.01-.96.13-1.63.99-1.49,1.92s1.03,1.57,1.99,1.44c.96-.13,1.63-.99,1.49-1.92-.11-.71-.65-1.24-1.33-1.4Z"/>
      <path class="cls-1" d="M556.67,488.09c-.58.08-1.06.4-1.36.83-1.96-1.02-4.12-2.32-5.84-3.82.13-.19.13-.44-.09-.65-1.17-1.13-2.14-2.33-2.6-3.88-.06-.19-.32-.37-.52-.38-.66-.03-1.31-.06-1.97-.09l-.27-1.8c.23-.11.4-.33.35-.65-.05-.34-.12-.83-.2-1.32,1.04,0,2.08.01,3.12.02.76,0,1.05,1.41,1.63,2.22.19.28.47.3.71.2.43.55.89,1.09,1.4,1.64-.32.39-.48.91-.4,1.44.16,1.04,1.16,1.77,2.24,1.62,1.08-.15,1.84-1.12,1.68-2.16-.16-1.04-1.16-1.77-2.24-1.62-.37.05-.7.2-.97.42-.5-.53-.96-1.07-1.37-1.61.13-.2.16-.46-.01-.71-.52-.75-.99-1.51-1.41-2.31-.09-.18-.29-.37-.52-.38-3.4-.02-6.8-.05-10.2-.07-.32,0-.55.19-.65.42l-3.77-.03c0-.06.02-.11,0-.17-.14-.93-1.03-1.57-1.99-1.44-.96.13-1.63.99-1.49,1.92.14.93,1.03,1.57,1.99,1.44.75-.1,1.31-.65,1.46-1.32l3.74.03c.04.23.22.42.54.42,1.73.01,3.46.03,5.18.04.08.55.17,1.13.22,1.51.05.32.27.49.52.53l.26,1.72c-1.09-.05-2.18-.1-3.27-.15-.33-.02-.55.16-.66.39l-6.03-.28c0-.05,0-.1,0-.15-.16-1.04-1.16-1.77-2.24-1.62-1.08.15-1.84,1.12-1.68,2.16.16,1.04,1.16,1.77,2.24,1.62.88-.12,1.53-.79,1.67-1.59l6,.28c.04.23.22.43.55.45,1.77.08,3.54.17,5.3.25.42,1.18,1.11,2.19,1.96,3.11l-2.23,2.87c-.39-.35-.76-.72-1.07-1.13-.44-.58-.55-1.22-1.35-1.27-1.29-.08-2.57-.16-3.86-.25-.33-.02-.55.16-.66.38l-5.56-.35c.03-.17.06-.33.03-.51-.14-.93-1.03-1.57-1.99-1.44s-1.63.99-1.49,1.92c.14.93,1.03,1.57,1.99,1.44.62-.09,1.09-.49,1.33-1l5.64.36c.04.24.22.44.55.46,1.27.08,2.54.16,3.8.24,1.08,1.76,2.84,3.02,4.58,4.14.28.18.56.13.77-.02.93.56,1.87,1.07,2.76,1.52-.02.25.08.51.37.66,1.13.55,2.28,1.08,3.44,1.56.04.6.09,1.19.14,1.79.02.32.23.48.48.52l.11,1.47c-.96.14-1.62.99-1.48,1.92.14.93,1.03,1.57,1.99,1.44.96-.13,1.63-.99,1.49-1.92-.12-.78-.78-1.33-1.56-1.41l-.12-1.55c.23-.1.41-.32.39-.64-.05-.71-.11-1.42-.16-2.13-.02-.22-.2-.42-.4-.5-1.3-.51-2.57-1.1-3.82-1.72-.29-.14-.54-.06-.7.12-.86-.44-1.77-.94-2.66-1.47.07-.22.02-.47-.25-.64-.81-.52-1.64-1.07-2.41-1.7l2.21-2.84c.12.13.24.26.37.38.24.23.54.24.79.13,1.77,1.54,3.98,2.88,5.98,3.92-.12.29-.17.62-.12.95.16,1.04,1.16,1.77,2.24,1.62,1.08-.15,1.84-1.12,1.68-2.16-.16-1.04-1.16-1.77-2.24-1.62ZM552.37,480.12c.84-.12,1.62.45,1.74,1.26.12.81-.47,1.56-1.31,1.68-.84.12-1.62-.45-1.74-1.26-.12-.81.47-1.56,1.31-1.68ZM532.13,481.63c-.84.12-1.62-.45-1.74-1.26-.12-.81.46-1.56,1.31-1.68s1.62.45,1.74,1.26c.12.81-.47,1.56-1.31,1.68ZM557.17,491.45c-.84.12-1.62-.45-1.74-1.26-.12-.81.47-1.56,1.31-1.68.84-.12,1.62.45,1.74,1.26s-.47,1.56-1.31,1.68Z"/>
      <path class="cls-1" d="M628.84,494.83c-.33.05-.62.17-.88.35-4.2-3.31-8.77-6.15-13.58-8.51.04-.26-.05-.55-.36-.69-6-2.86-12.3-4.95-18.85-6.28-.84-.17-.99,1.09-.17,1.26,6.44,1.31,12.62,3.39,18.51,6.2.28.13.51.06.67-.1,4.76,2.34,9.28,5.15,13.44,8.42-.37.4-.56.95-.48,1.52.16,1.04,1.16,1.77,2.24,1.62.62-.09,1.13-.45,1.43-.94v-.97h.26c0-.08,0-.17-.01-.25-.16-1.04-1.16-1.77-2.24-1.62ZM629.34,498.18c-.84.12-1.62-.45-1.74-1.26-.12-.81.46-1.56,1.31-1.68s1.62.45,1.74,1.26-.47,1.56-1.31,1.68Z"/>
      <path class="cls-1" d="M585.55,522.06c-.16-.03-.31-.07-.47-.09,0-.28-.17-.55-.55-.6-1.92-.26-3.85-.35-5.79-.3-.37.01-.53.26-.54.53-.48.02-.97.08-1.46.12-.24-.8-1.03-1.34-1.91-1.22-.96.13-1.63.99-1.49,1.92.14.93,1.03,1.57,1.99,1.44.93-.13,1.57-.94,1.49-1.82.48-.04.96-.1,1.44-.12.11.23.33.42.66.41,1.82-.05,3.63.06,5.43.3.33.04.55-.12.65-.35.15.02.29.06.44.08-.03.17-.06.34-.03.52.03.23.12.45.24.64v-1.69c-.04.07-.09.14-.12.22Z"/>
      <path class="cls-1" d="M610.82,554.47c-.25.04-.48.21-.52.52-.72,5.77-3.06,11.06-6.85,15.59-.24.28-.15.58.05.78-.61.69-1.26,1.34-1.94,1.98-.38-.44-.96-.71-1.59-.62-.96.13-1.63.99-1.49,1.92.14.93,1.03,1.57,1.99,1.44.96-.13,1.63-.99,1.49-1.92-.03-.18-.1-.34-.18-.49.72-.68,1.42-1.37,2.06-2.11.22.05.47,0,.66-.21,3.93-4.68,6.36-10.22,7.11-16.19.04-.32-.14-.53-.37-.63.2-2.19.16-4.4-.15-6.59h-.44c.31,2.18.36,4.38.16,6.54Z"/>
      <path class="cls-1" d="M594.69,549.24c-.84.12-1.62-.45-1.74-1.26,0-.02,0-.03,0-.05h-.44s0,.07,0,.11c.16,1.04,1.16,1.77,2.24,1.62.93-.13,1.61-.86,1.69-1.73h-.47c-.08.66-.58,1.21-1.28,1.31Z"/>
      <path class="cls-1" d="M551.84,581.09c-.14-.93-1.03-1.57-1.99-1.44-.96.13-1.63.99-1.49,1.92.01.1.07.18.1.27h3.3c.08-.24.13-.49.09-.75Z"/>
      <path class="cls-1" d="M565.33,590.7c-.12.3-.18.63-.13.97.16,1.04,1.16,1.77,2.24,1.62,1.08-.15,1.84-1.12,1.68-2.16-.16-1.04-1.16-1.77-2.24-1.62-.57.08-1.04.39-1.35.81-.38-.13-.76-.28-1.14-.42v.45c.31.12.62.24.93.35ZM566.95,589.92c.84-.12,1.62.45,1.74,1.26s-.47,1.56-1.31,1.68c-.84.12-1.62-.45-1.74-1.26-.12-.81.47-1.56,1.31-1.68Z"/>
      <path class="cls-1" d="M565.1,585.15c.31.13.56.03.72-.16,3.42,1.34,7.07,2.2,10.83,2.52-.01.14-.01.29,0,.44.16,1.04,1.16,1.77,2.24,1.62,1.08-.15,1.84-1.12,1.68-2.16-.16-1.04-1.16-1.77-2.24-1.62-.79.11-1.4.66-1.61,1.35v-.04c-3.73-.31-7.35-1.16-10.74-2.49.02-.24-.09-.49-.39-.62-.41-.17-.79-.38-1.2-.57v1.42c.23.1.46.22.7.32ZM578.4,586.2c.84-.12,1.62.45,1.74,1.26.12.81-.46,1.56-1.31,1.68-.84.12-1.62-.45-1.74-1.26-.12-.81.47-1.56,1.31-1.68Z"/>
      <path class="cls-1" d="M545.4,534.85c.09.6.51,1.05,1.04,1.28-.48.94-.91,1.89-1.3,2.85-.26-.03-.52.07-.64.38-2.08,5.68-2.71,11.61-1.89,17.58.04.32.28.48.54.52.39,2.37,1.03,4.7,1.89,6.93-.67.38-1.08,1.13-.96,1.92.16,1.04,1.16,1.77,2.24,1.62,1.08-.15,1.84-1.12,1.68-2.16s-1.16-1.77-2.24-1.62c-.11.01-.21.04-.31.07-.85-2.2-1.48-4.49-1.86-6.83.22-.11.38-.32.33-.63-.11-.78-.18-1.55-.24-2.32l1.24-.17c.11.22.34.38.68.33.72-.1,1.59-.22,2.48-.34.05.63.11,1.27.2,1.9.04.33.28.49.54.52.58,3.4,1.72,6.62,3.37,9.55-.19.15-.29.4-.12.68,1.27,2.11,2.76,4.03,4.46,5.8l-.52.67c-.24-.08-.52-.04-.71.21-.58.75-1.17,1.5-1.75,2.26-.65-.65-1.29-1.32-1.89-2.03-.2-.24-.48-.27-.71-.19-.7-.85-1.35-1.74-1.97-2.66.49-.36.78-.94.69-1.57-.14-.93-1.03-1.57-1.99-1.44-.96.13-1.63.99-1.49,1.92.14.93,1.03,1.57,1.99,1.44.15-.02.28-.09.42-.14.63.94,1.3,1.84,2,2.71-.15.2-.19.48.02.73.76.89,1.57,1.73,2.41,2.54.05.08.13.15.22.21,1.75,1.67,3.65,3.16,5.68,4.48h2.47c-2.5-1.44-4.82-3.12-6.91-5.07.62-.8,1.25-1.61,1.87-2.41.2-.25.16-.52,0-.72l.47-.6c.61.62,1.25,1.22,1.92,1.8.25.22.52.19.72.04,1.84,1.51,3.88,2.82,6.09,3.91-.11.27-.18.55-.13.85.14.93,1.03,1.57,1.99,1.44.96-.13,1.63-.99,1.49-1.92-.14-.93-1.03-1.57-1.99-1.44-.49.07-.9.33-1.17.68-2.18-1.08-4.19-2.38-6.02-3.87.08-.23.05-.51-.19-.71-2.48-2.16-4.58-4.64-6.25-7.42-.16-.26-.43-.36-.69-.33-1.63-2.9-2.77-6.09-3.34-9.46.22-.11.37-.32.33-.63-.38-2.74-.39-5.47-.03-8.21.11-.82-1.2-.97-1.31-.16-.24,1.8-.3,3.59-.23,5.38-1.1.15-2.6.36-2.6.36-.34.05-.51.26-.55.5l-1.2.17c-.29-4.81.38-9.57,2.07-14.17.1-.29,0-.53-.18-.69.39-.98.83-1.94,1.32-2.9.17.03.35.05.53.03.96-.13,1.63-.99,1.49-1.92-.09-.62-.53-1.09-1.1-1.31h-1.28c-.74.28-1.23,1-1.11,1.79ZM545.82,564.57c.84-.12,1.62.45,1.74,1.26.12.81-.46,1.56-1.31,1.68-.84.12-1.62-.45-1.74-1.26-.12-.81.47-1.56,1.31-1.68Z"/>
      <path class="cls-1" d="M603.31,584.68c.06.37.22.69.45.96-1.95,1.28-3.98,2.39-6.08,3.32-.17-.18-.43-.28-.72-.15-5.48,2.28-11.3,3.47-17.27,3.49-.31,0-.53.18-.64.39-1.42-.03-2.83-.13-4.24-.29,0-.12.04-.23.02-.36-.14-.93-1.03-1.57-1.99-1.44-.96.13-1.63.99-1.49,1.92.14.93,1.03,1.57,1.99,1.44.68-.09,1.19-.56,1.4-1.14,1.41.16,2.82.27,4.24.29.03.24.2.45.54.45,1.45,0,2.89-.08,4.33-.21l.18,1.18c-.23.11-.4.33-.35.65.09.6.31,2.06.42,2.84-2.73.23-5.48.26-8.24.06-.85-.06-1.02,1.2-.17,1.26,5.79.42,11.54-.08,17.15-1.5.81-.21.64-1.47-.19-1.26-2.39.61-4.81,1.04-7.24,1.31-.16-1.09-.32-2.15-.43-2.89-.05-.32-.27-.49-.52-.53l-.17-1.16c4.54-.46,8.96-1.56,13.2-3.33.3-.13.41-.38.37-.63,2.16-.96,4.24-2.1,6.23-3.41.29.21.64.34,1.02.37v-.45c-.68-.07-1.26-.55-1.36-1.24-.12-.81.46-1.56,1.31-1.68.02,0,.04,0,.06,0v-.43s-.08,0-.12,0c-1.08.15-1.84,1.12-1.68,2.16Z"/>
      <path class="cls-1" d="M545.41,553.34s-.07,0-.15.02c.04,0,.09-.01.15-.02Z"/>
      <path class="cls-1" d="M545.26,553.36c-.06,0-.11.01-.14.02.04,0,.09-.01.14-.02Z"/>
      <path class="cls-1" d="M584.66,577.91s-.01-.1-.03-.2c0,.05.02.11.03.2Z"/>
      <path class="cls-1" d="M574.86,552.49c.08.51.25.98.48,1.42-.19.21-.27.51-.06.8,1.75,2.35,5.41,3.29,7.89,1.32,2.49-1.98,2.86-5.21.89-7.67-.23-.28-.55-.28-.8-.15-1.08-.95-2.56-1.46-4.12-1.25-.1.01-.2.04-.3.06-.48-.5-1.19-.78-1.94-.67-1.2.17-2.04,1.24-1.87,2.4.05.31.16.59.32.83-.48.9-.66,1.9-.51,2.9ZM576.98,546.77c.96-.13,1.86.51,1.99,1.44.14.93-.53,1.79-1.49,1.92-.96.13-1.86-.51-1.99-1.44-.14-.93.53-1.79,1.49-1.92ZM575.68,549.95c.47.45,1.15.7,1.86.6,1.2-.17,2.04-1.24,1.87-2.4-.04-.27-.14-.52-.27-.74.03,0,.05-.01.08-.01,1.42-.2,2.77.27,3.75,1.13-.1.19-.11.42.07.64,3.56,4.47-3.34,9.29-6.72,4.77-.17-.22-.39-.27-.6-.23-.19-.39-.35-.81-.42-1.27-.13-.86.01-1.7.38-2.48Z"/>
      <path class="cls-1" d="M555.22,518.45c.42.36.99.55,1.59.47,1.08-.15,1.84-1.12,1.68-2.16-.16-1.04-1.16-1.77-2.24-1.62-1.08.15-1.83,1.12-1.68,2.16.05.31.18.59.36.83-.86.6-1.69,1.24-2.5,1.89v.56c.9-.74,1.82-1.47,2.79-2.13ZM556.31,515.56c.84-.12,1.62.45,1.74,1.26s-.47,1.56-1.31,1.68c-.84.12-1.62-.45-1.74-1.26-.12-.81.47-1.56,1.31-1.68Z"/>
      <path class="cls-1" d="M533.22,535.74c-.12.31,0,.56.22.72-.66,1.85-1.21,3.75-1.63,5.69-.15-.01-.3-.01-.45,0-1.08.15-1.84,1.12-1.68,2.16s1.16,1.77,2.24,1.62c1.08-.15,1.84-1.12,1.68-2.16-.11-.75-.66-1.32-1.36-1.54.41-1.91.95-3.79,1.61-5.62.24.01.48-.1.59-.39.41-1.07.86-2.12,1.34-3.15h-1.42c-.4.88-.8,1.76-1.14,2.67ZM533.17,543.83c.12.81-.46,1.56-1.31,1.68s-1.62-.45-1.74-1.26c-.12-.81.47-1.56,1.31-1.68.84-.12,1.62.45,1.74,1.26Z"/>
      <path class="cls-1" d="M540.21,535.98c-.28-.09-.57-.12-.88-.08-1.08.15-1.84,1.12-1.68,2.16.16,1.04,1.16,1.77,2.24,1.62,1.08-.15,1.84-1.12,1.68-2.16-.09-.6-.46-1.08-.96-1.37.46-1.06.97-2.08,1.52-3.1h-.5c-.51.95-.99,1.92-1.42,2.92ZM541.13,537.58c.12.81-.46,1.56-1.31,1.68-.84.12-1.62-.45-1.74-1.26-.12-.81.47-1.56,1.31-1.68.84-.12,1.62.45,1.74,1.26Z"/>
      <path class="cls-1" d="M578.14,513.26c-.01-.07-.02-.12-.02-.16.01.09.02.16.02.16Z"/>
      <path class="cls-1" d="M633.13,536.05c-.67-2.13-1.49-4.18-2.42-6.19.2-.16.31-.41.17-.71-1.27-2.63-2.75-5.14-4.42-7.56-.18-.27-.45-.3-.69-.21-.99-1.38-2.05-2.71-3.18-4.01.37-.36.58-.86.5-1.41-.14-.93-1.03-1.57-1.99-1.44-.96.13-1.63.99-1.49,1.92.14.93,1.03,1.57,1.99,1.44.24-.03.47-.11.66-.23,1.12,1.29,2.18,2.62,3.16,3.99-.14.2-.18.48,0,.74,1.6,2.32,3.01,4.75,4.24,7.28.14.28.39.38.64.36.91,1.96,1.71,3.97,2.38,6.05l-1.7,2.21c-.24-.08-.52-.04-.71.21-.71.92-1.41,1.84-2.12,2.75-.27-1.16-.57-2.32-.92-3.47-.1-.32-.35-.41-.6-.38-.41-1.25-.86-2.49-1.38-3.7.63-.39,1-1.11.89-1.87-.16-1.04-1.16-1.77-2.24-1.62-1.08.15-1.83,1.12-1.68,2.16s1.16,1.77,2.24,1.62c.14-.02.27-.05.4-.1.52,1.21.97,2.44,1.38,3.69-.18.16-.29.41-.21.7,1.03,3.36,1.67,6.79,1.96,10.28.03.31.23.48.47.52.08,1.3.1,2.61.07,3.9-.12,0-.23-.04-.35-.02-.96.13-1.63.99-1.49,1.92.14.93,1.03,1.57,1.99,1.44.96-.13,1.63-.99,1.49-1.92-.1-.67-.6-1.19-1.24-1.37h.04c.03-1.33,0-2.67-.07-4.01.24-.1.42-.32.4-.64-.15-1.87-.42-3.71-.78-5.53.06-.04.11-.08.16-.14.88-1.15,1.77-2.3,2.65-3.45.2-.25.16-.52,0-.72l1.84-2.39-.03-.1ZM624.38,533.57c-.84.12-1.62-.45-1.74-1.26-.12-.81.47-1.56,1.31-1.68.84-.12,1.62.45,1.74,1.26s-.47,1.56-1.31,1.68Z"/>
      <path class="cls-1" d="M582.38,499.08c.32.02.55-.16.65-.38,1.87.12,3.78.33,5.82.66,0,.11,0,.23.01.35.16,1.04,1.16,1.77,2.24,1.62,1.08-.15,1.84-1.12,1.68-2.16-.16-1.04-1.16-1.77-2.24-1.62-.81.11-1.43.68-1.63,1.39-2.05-.33-3.96-.54-5.83-.67-.04-.23-.22-.43-.54-.44-2.09-.1-4.17-.05-6.25.07-.13-.87-.28-1.92-.28-1.92-.05-.32-.27-.49-.52-.53l-.46-3.07c1.93-.15,3.85-.18,5.78-.15.06.21.23.39.53.4,4.42.13,8.78.68,13.08,1.66.31.07.52-.06.63-.26,1.17.28,2.32.61,3.48.96h0s0,0,0,0c3.04.93,6.01,2.06,8.89,3.44-.26.38-.38.84-.31,1.32.16,1.04,1.16,1.77,2.24,1.62,1.08-.15,1.84-1.12,1.68-2.16s-1.16-1.77-2.24-1.62c-.45.06-.84.27-1.13.56l.03-.06c-2.87-1.38-5.84-2.52-8.88-3.45l.99-1.27c.24.08.52.04.71-.21.87-1.12,1.75-2.24,2.62-3.37,1.71.6,3.41,1.24,5.08,1.96.3.13.55.03.71-.15,2.09.94,4.14,1.98,6.14,3.13-.11.29-.16.61-.12.94.16,1.04,1.16,1.77,2.24,1.62,1.08-.15,1.83-1.12,1.68-2.16-.16-1.04-1.16-1.77-2.24-1.62-.58.08-1.06.4-1.36.84-2.02-1.15-4.08-2.2-6.18-3.15.02-.25-.08-.51-.38-.64-4.4-1.9-8.96-3.36-13.66-4.4-.33-.07-.55.08-.65.31-1.99-.41-3.99-.74-6.03-.98.06-.23.08-.47.04-.72-.16-1.04-1.16-1.77-2.24-1.62-1.08.15-1.83,1.12-1.68,2.16.16,1.04,1.16,1.77,2.24,1.62.67-.09,1.21-.5,1.49-1.03,2.07.24,4.11.58,6.13,1,.05.24.22.46.53.53,2.36.52,4.68,1.16,6.96,1.91-.79,1.02-1.59,2.04-2.38,3.06-.2.25-.16.52,0,.72l-1.08,1.39c-1.08-.32-2.16-.63-3.25-.9-.03-.26-.2-.51-.53-.58-4.31-.98-8.66-1.53-13.09-1.66-.34,0-.57.2-.67.44-2.02-.03-4.05,0-6.08.17l-.23.02.52,3.51c-.23.11-.4.33-.35.65.12.84.25,1.66.38,2.54.05.36.37.46.73.44,2.19-.16,4.37-.18,6.56-.07ZM590.61,497.97c.84-.12,1.62.45,1.74,1.26s-.47,1.56-1.31,1.68c-.84.12-1.62-.45-1.74-1.26-.12-.81.46-1.56,1.31-1.68ZM608.86,498.02c.84-.12,1.62.45,1.74,1.26.12.81-.47,1.56-1.31,1.68-.84.12-1.62-.45-1.74-1.26-.12-.81.46-1.56,1.31-1.68ZM616.7,493.93c.84-.12,1.62.45,1.74,1.26s-.47,1.56-1.31,1.68c-.84.12-1.62-.45-1.74-1.26s.47-1.56,1.31-1.68ZM586.68,486.52c-.84.12-1.62-.45-1.74-1.26s.47-1.56,1.31-1.68c.84-.12,1.62.45,1.74,1.26.12.81-.46,1.56-1.31,1.68Z"/>
      <path class="cls-1" d="M576.01,495.99c-.01-.07-.02-.12-.02-.16.01.09.02.16.02.16Z"/>
      <path class="cls-1" d="M637.57,528c-.13-.3-.4-.4-.66-.36-.5-1.09-1.03-2.18-1.59-3.24.56-.35.9-.98.8-1.66-.14-.93-1.03-1.57-1.99-1.44-.96.13-1.63.99-1.49,1.92.14.93,1.03,1.57,1.99,1.44.1-.01.19-.07.28-.1.57,1.07,1.1,2.16,1.6,3.26-.18.16-.27.41-.15.69.97,2.22,1.81,4.48,2.52,6.79.24.78,1.45.27,1.21-.51-.71-2.31-1.55-4.57-2.52-6.79Z"/>
      <path class="cls-1" d="M616.19,478.58c-1.08.15-1.84,1.12-1.68,2.16.16,1.04,1.16,1.77,2.24,1.62.49-.07.9-.31,1.2-.64,1.5.76,2.98,1.57,4.43,2.42-.07.22-.02.47.26.63.63.38,1.25.78,1.88,1.17-.62.8-1.24,1.6-1.86,2.4-.2.25-.16.52,0,.72l-1.18,1.51.35.25,1.18-1.51c.24.08.52.04.71-.21.64-.82,1.27-1.64,1.91-2.46,2.65,1.74,5.21,3.61,7.65,5.63.65.53,1.44-.49.79-1.02-2.55-2.1-5.22-4.05-8-5.85-.11-.15-.28-.26-.47-.29-.72-.46-1.44-.92-2.17-1.36-.28-.17-.58-.11-.79.05-1.46-.85-2.93-1.66-4.44-2.43.19-.35.28-.75.22-1.17-.16-1.04-1.16-1.77-2.24-1.62ZM618,480.26c.12.81-.46,1.56-1.31,1.68-.84.12-1.62-.45-1.74-1.26s.47-1.56,1.31-1.68c.84-.12,1.62.45,1.74,1.26Z"/>
      <path class="cls-1" d="M607.49,451.36c-.05,0-.12.02-.17.02.04,0,.1-.01.17-.02Z"/>
      <path class="cls-1" d="M607.61,451.35c-.05,0-.09.01-.12.02.07,0,.12-.02.12-.02Z"/>
      <path class="cls-1" d="M570.07,431.78c5.27,2.25,10.63,4.27,16.07,6.09.31.1.58-.01.74-.21,3.09,1.02,5.52,1.75,6.93,2.16-.02.16-.03.33,0,.5.16,1.04,1.16,1.77,2.24,1.62,1.08-.15,1.84-1.12,1.68-2.16-.16-1.04-1.16-1.77-2.24-1.62-.75.1-1.33.6-1.57,1.24-1.42-.41-3.81-1.13-6.87-2.14.02-.24-.1-.47-.4-.58-1.85-.62-3.69-1.27-5.52-1.94l-.41-2.75c2.05.68,4.11,1.33,6.19,1.92.32.09.58-.04.75-.24,3.22.88,5.84,1.45,7.53,1.79-.01.13-.04.26-.02.39.14.93,1.03,1.57,1.99,1.44.96-.13,1.63-.99,1.49-1.92-.14-.93-1.03-1.57-1.99-1.44-.67.09-1.17.54-1.38,1.11-1.67-.33-4.26-.9-7.45-1.77.02-.23-.1-.46-.41-.55-2.99-.83-5.94-1.77-8.86-2.82-.31-.11-.57,0-.73.19-.59-.22-1.2-.45-1.8-.68.07-.25.09-.51.05-.78-.16-1.04-1.16-1.77-2.24-1.62-1.08.15-1.84,1.12-1.68,2.16.16,1.04,1.16,1.77,2.24,1.62.65-.09,1.17-.47,1.46-.99.61.23,1.21.46,1.8.68-.02.24.09.49.4.6.73.26,1.47.5,2.2.75l.41,2.74c-3.39-1.24-6.76-2.56-10.08-3.98-.3-.13-.55-.03-.71.15-2.63-1.14-5.31-2.38-7.97-3.71.06-.23.08-.48.04-.73-.16-1.04-1.16-1.77-2.24-1.62-1.08.15-1.83,1.12-1.68,2.16.16,1.04,1.16,1.77,2.24,1.62.66-.09,1.2-.49,1.48-1.03,2.65,1.33,5.33,2.56,7.96,3.7-.03.25.08.51.38.64ZM595.55,438.59c.84-.12,1.62.45,1.74,1.26.12.81-.47,1.56-1.31,1.68-.84.12-1.62-.45-1.74-1.26s.46-1.56,1.31-1.68ZM574.31,430.39c-.84.12-1.62-.45-1.74-1.26-.12-.81.46-1.56,1.31-1.68s1.62.45,1.74,1.26c.12.81-.47,1.56-1.31,1.68ZM560.18,428.06c-.84.12-1.62-.45-1.74-1.26-.12-.81.47-1.56,1.31-1.68.84-.12,1.62.45,1.74,1.26.12.81-.46,1.56-1.31,1.68Z"/>
      <path class="cls-1" d="M549.52,495.1c-1.44-.61-2.84-1.31-4.2-2.07-.28-.16-.56-.1-.77.04-.99-.59-1.95-1.23-2.69-1.88.3-.36.47-.82.39-1.31-.14-.93-1.03-1.57-1.99-1.44-.96.13-1.63.99-1.49,1.92s1.03,1.57,1.99,1.44c.3-.04.55-.17.78-.33.77.68,1.74,1.34,2.75,1.94-.09.22-.04.48.25.64,1.33.74,2.7,1.44,4.1,2.05.07,1.28.14,2.56.22,3.84-.9.09-1.79.21-2.68.35-.33.05-.5.28-.53.53-.94.18-1.94.43-2.89.74-.39-.68-1.18-1.09-2.02-.98-1.08.15-1.83,1.12-1.68,2.16.16,1.04,1.16,1.77,2.24,1.62,1.08-.15,1.83-1.12,1.68-2.16-.01-.09-.04-.17-.06-.25.92-.3,1.89-.53,2.8-.71.11.21.33.36.65.31,1.09-.18,2.18-.34,3.28-.42.38-.03.58-.39.56-.72-.09-1.61-.18-3.21-.27-4.82-.01-.22-.2-.41-.4-.5ZM541.24,503.94c-.84.12-1.62-.45-1.74-1.26s.47-1.56,1.31-1.68c.84-.12,1.62.45,1.74,1.26.12.81-.47,1.56-1.31,1.68Z"/>
      <path class="cls-1" d="M750.4,495.87c-4.8-8.84-3.96-19.2-3.14-28.45,1.12-12.63,1.07-17.69.27-30.21,0,0-1.07-12.99-3.59-23.95-3.15-13.72-28.83-59.49-82.94-80.03-45.5-17.27-104.05-11.51-147.99,22.53-17.85,13.83-34.56,37.56-39.51,49.05,16.39-19.48,39.73-36.15,63.79-47.43v-11.89h33.13c14.77-3.62,28.7-4.62,40.21-2.32,4.5.8,27.05,4.76,48.46,18.23h14.83v11.34c6.16,5.72,11.77,12.49,16.25,20.55,4.54,8.17,6.91,15.74,8.23,21.36-1.08,8.5-4.65,16.67-11.01,22.95-5.62,5.56-11.44,10.95-16.75,16.78-2.79,3.06-5.33,6.66-6.82,10.45-3.06,7.83-2.31,15.92,1.33,23.39,3.31,6.79,7.36,13.26,11.4,19.68,9.92,15.77,12.81,32.68,8.75,50.59-1.53,6.75-3.51,13.41-5.45,20.07h7.17v28.53h-16.48c-5.15,12.43-13.89,30.21-29.25,54.71,0,0,65.15-6.33,91.49-14.19,12.65-1.11,20.01-11.11,16.77-22.96-.8-2.94-1.94-5.79-2.72-8.73-1.46-5.55.26-10.07,4.99-13.55,1.51-1.11,3.08-2.22,4.36-3.56,3-3.14,2.96-7.18.26-10.5-1.81-2.22-4.4-1.9-6.81-2.24-7.48-1.05-14.96-2.1-22.44-3.14.04-.35.08-.69.13-1.04,6.61.37,13.22.69,19.82,1.12,7.98.52,14.87-4.61,16.24-12.13.27-1.5.08-2.47-1.49-3.31-8.4-4.5-6.37-12.62.52-16.22,2.24-1.17,4.76-1.86,7.14-2.78,4.56-1.76,9.21-5.47,10.34-8.26,4.65-11.51-19.72-26.45-29.49-44.44ZM647.17,656.58c.24-.22.41-.37.49-.44-.07.06-.23.2-.49.44ZM732.88,483.65c-3.26,1.14-10.55,3.2-19.63,1.6-7.79-1.38-13.24-4.81-15.96-6.8,2.59-2.9,7.63-7.75,15.55-11,11.21-4.6,21.33-3.17,25.29-2.4-2,1.27-4.01,2.53-6.01,3.8.26,4.93.51,9.87.77,14.8Z"/>
      <path class="cls-1" d="M588.28,480.36c-.11.12-.21.24-.32.36-.92.92-1.95,1.69-3.03,2.36h3.35v-2.72Z"/>
      <path class="cls-1" d="M588.28,453.36h-.54c.19.34.37.68.54,1.02v-1.02Z"/>
      <path class="cls-1" d="M558.57,453.36v1.49c.52-.53,1.07-1.03,1.65-1.49h-1.65Z"/>
      <path class="cls-1" d="M558.57,483.08h3.84c-1.29-.91-2.58-1.92-3.84-2.96v2.96Z"/>
      <path class="cls-1" d="M596,547.56c-.12-.81-.9-1.37-1.74-1.26-.82.11-1.39.84-1.3,1.63h3.03c.01-.12.04-.24.02-.37Z"/>
      <path class="cls-1" d="M615.38,519.16v-.94h-.55c-.04.08-.09.16-.14.23.24.23.46.47.69.71Z"/>
      <path class="cls-1" d="M600.86,547.32c-.12-.81-.9-1.37-1.74-1.26-.84.12-1.43.87-1.31,1.68.01.07.05.13.07.19h2.93c.06-.19.08-.4.05-.61Z"/>
      <path class="cls-1" d="M613.29,518.83c.43-.06.79-.29,1.02-.6h-2.47c.33.43.86.68,1.44.6Z"/>
      <path class="cls-1" d="M585.67,545.54v2.4h2.25c-.5-.95-1.15-1.78-1.93-2.46-.1.05-.2.07-.31.06Z"/>
      <path class="cls-1" d="M529.05,532.61c.84-.12,1.43-.87,1.31-1.68-.11-.77-.83-1.29-1.61-1.25v2.91c.1,0,.2.03.31.02Z"/>
      <path class="cls-1" d="M541.37,453.16h1.45v-2.5c-.05,0-.1,0-.15-.02-.47.82-.9,1.66-1.3,2.52Z"/>
      <path class="cls-1" d="M598.73,395.94v.1s0-.07.01-.1c0,0,0,0-.01,0Z"/>
      <path class="cls-1" d="M605.3,422.54h.1c-.29-.05-.54-.18-.77-.34v5.47c.08-.06.17-.11.27-.13.14-1.64.27-3.3.4-5Z"/>
      <path class="cls-1" d="M540.74,416.84h.39v-.52s-.01.03-.02.04c-.12.16-.25.32-.37.48Z"/>
      <path class="cls-1" d="M541.14,415.67v-.04h-.01s0,.03.01.04Z"/>
      <path class="cls-1" d="M523.35,416.31c-.31.05-.52-.08-.64-.28-.88.18-1.7.4-2.48.62v.2h13.28c-.18-.07-.36-.16-.54-.22-3.06-1.06-6.48-.86-9.62-.32Z"/>
      <path class="cls-1" d="M564.4,581.84h-3.01c.97.56,1.98,1.08,3.01,1.56v-1.56Z"/>
    </g>
    <g>
      <rect class="cls-2" x="560.95" y="456.67" width="23.8" height="23.8"/>
      <rect class="cls-1" x="589.02" y="523.06" width="22.41" height="22.41"/>
      <rect class="cls-1" x="532.78" y="512.63" width="16.47" height="16.47"/>
      <rect class="cls-1" x="527.96" y="438.34" width="13.06" height="13.06"/>
      <rect class="cls-1" x="601.1" y="384.56" width="13.79" height="13.79"/>
      <rect class="cls-3" x="608.91" y="419.09" width="12.03" height="12.03"/>
      <rect class="cls-2" x="523.89" y="398.33" width="16.04" height="16.04"/>
      <rect class="cls-2" x="636.29" y="498.71" width="16.04" height="16.04"/>
      <rect class="cls-2" x="544.56" y="586.49" width="16.04" height="16.04"/>
      <rect class="cls-3" x="607.57" y="573.37" width="14.73" height="14.73"/>
      <rect class="cls-3" x="654.39" y="364.17" width="16.68" height="16.68"/>
      <rect class="cls-3" x="504.94" y="552.08" width="22.86" height="22.86"/>
      <rect class="cls-2" x="489.27" y="447.49" width="18.36" height="18.36"/>
      <rect class="cls-3" x="542.38" y="350.77" width="23.8" height="23.8"/>
      <rect class="cls-1" x="664.9" y="584.72" width="16.33" height="16.33"/>
    </g>
  </g>
  <path class="cls-3" d="M492.78,675.75l9.18,9.18v105.9h-64.95l-26.02-26.31v-113.11l28.31,24.34v91.79l4.15,4.15h34.11v-95.95h15.2Z"/>
  <path class="cls-3" d="M510.9,636.05v118.24l16.35,12.73h8.03v-74.57c2.17,2.17,4.44,4.44,6.82,6.82s4.98,4.94,7.82,7.69h52.15v-47.02l-24.01-23.89h-67.16ZM577.56,687.82h-39.14l-3.13-3.13v-29.51h39.14l3.13,3.13v29.51Z"/>
</svg>